<?xml version="1.0" encoding="UTF-8" standalone="no"?>
<!DOCTYPE svg PUBLIC "-//W3C//DTD SVG 1.1//EN" "http://www.w3.org/Graphics/SVG/1.1/DTD/svg11.dtd">
<svg width="100%" height="100%" viewBox="0 0 290 290" version="1.1" xmlns="http://www.w3.org/2000/svg" xmlns:xlink="http://www.w3.org/1999/xlink" xml:space="preserve" xmlns:serif="http://www.serif.com/" style="fill-rule:evenodd;clip-rule:evenodd;stroke-linejoin:round;stroke-miterlimit:2;">
    <g id="rozcestník">
        <path d="M145,0C65.455,0 0,65.455 0,145C0,224.545 65.455,290 145,290C224.545,290 290,224.545 290,145C290,65.455 224.545,0 145,0ZM246.12,246.12C219.312,272.928 182.913,288.005 145,288.005C66.55,288.005 1.995,223.45 1.995,145C1.995,107.087 17.072,70.688 43.88,43.88C70.688,17.072 107.087,1.995 145,1.995C223.45,1.995 288.005,66.55 288.005,145C288.005,182.913 272.928,219.312 246.12,246.12Z" style="fill:rgb(179,179,179);fill-rule:nonzero;"/>
        <path d="M145,70C103.856,70 70,103.856 70,145C70,186.144 103.856,220 145,220C186.144,220 220,186.144 220,145C220,103.856 186.144,70 145,70ZM145,218C104.953,218 72,185.047 72,145C72,104.953 104.953,72 145,72C185.047,72 218,104.953 218,145C217.951,185.028 185.028,217.951 145,218Z" style="fill:rgb(179,179,179);fill-rule:nonzero;"/>
        <g transform="matrix(-1,-7.65714e-16,7.65714e-16,-1,380.41,194.42)">
            <rect x="188.77" y="42.96" width="2.86" height="108.5" style="fill:rgb(128,128,128);"/>
        </g>
        <circle cx="190.2" cy="42.61" r="2.5" style="fill:rgb(128,128,128);"/>
        <path d="M186.7,125.66C186.52,125.406 186.231,125.251 185.92,125.24L168.14,125.24L162.14,116.37C161.958,116.12 161.669,115.969 161.36,115.96L146.27,115.96C145.76,115.96 145.34,116.38 145.34,116.89L145.34,141.67L116.27,141.67C115.758,141.675 115.34,142.098 115.34,142.61L115.34,151.89C115.34,152.4 115.76,152.82 116.27,152.82L179.13,152.82C179.133,152.82 179.137,152.82 179.14,152.82C179.65,152.82 180.07,152.4 180.07,151.89C180.07,151.89 180.07,151.89 180.07,151.89L180.07,137.11L181.73,137.11C182.105,137.111 182.445,136.885 182.59,136.54L186.78,126.54C186.891,126.25 186.862,125.925 186.7,125.66ZM117.21,143.54L145.34,143.54L145.34,151L117.21,151L117.21,143.54ZM178.21,150.96L147.21,150.96L147.21,137.11L178.21,137.11L178.21,150.96ZM181.12,135.24L147.22,135.24L147.22,117.82L160.88,117.82L166.88,126.7C167.05,126.959 167.341,127.113 167.65,127.11L184.53,127.11L181.12,135.24Z" style="fill:rgb(128,128,128);fill-rule:nonzero;"/>
        <path d="M223.84,180.1L247.35,150.82L113.06,150.82L113.06,170.1L127.35,180.1L223.84,180.1Z" style="fill:rgb(77,77,77);fill-rule:nonzero;"/>
        <path d="M193.06,46.53L193.06,125.11L247.35,125.11L193.06,46.53Z" style="fill:rgb(179,179,179);fill-rule:nonzero;"/>
        <path d="M187.35,48.68L187.35,112.96L130.2,112.96L187.35,48.68Z" style="fill:rgb(179,179,179);fill-rule:nonzero;"/>
        <path d="M126.33,140.28C126.817,140.201 127.176,139.773 127.17,139.28L127.17,138C129.618,137.803 131.943,136.836 133.81,135.24L134.75,136.18C134.93,136.33 135.156,136.412 135.39,136.412C135.928,136.412 136.375,135.978 136.39,135.44C136.367,135.209 136.264,134.994 136.1,134.83L135.17,133.9C136.765,132.026 137.728,129.694 137.92,127.24L139.33,127.24C139.414,127.262 139.501,127.274 139.588,127.274C140.136,127.274 140.588,126.822 140.588,126.274C140.588,125.725 140.136,125.274 139.588,125.274C139.465,125.274 139.344,125.296 139.23,125.34L137.92,125.34C137.726,122.887 136.764,120.556 135.17,118.68L136.1,117.76C136.448,117.38 136.448,116.79 136.1,116.41C135.923,116.227 135.679,116.124 135.425,116.124C135.171,116.124 134.927,116.227 134.75,116.41L133.82,117.34C131.95,115.74 129.622,114.771 127.17,114.57L127.17,113.26C127.203,113.159 127.22,113.054 127.22,112.948C127.22,112.399 126.769,111.948 126.22,111.948C125.671,111.948 125.22,112.399 125.22,112.948C125.22,113.054 125.237,113.159 125.27,113.26L125.27,114.6C122.817,114.799 120.489,115.769 118.62,117.37L117.69,116.44C117.513,116.257 117.269,116.154 117.015,116.154C116.761,116.154 116.517,116.257 116.34,116.44C115.992,116.82 115.992,117.41 116.34,117.79L117.27,118.71C115.677,120.587 114.711,122.916 114.51,125.37L113.2,125.37C112.791,125.505 112.512,125.889 112.512,126.32C112.512,126.751 112.791,127.135 113.2,127.27L114.53,127.27C114.731,129.724 115.697,132.053 117.29,133.93L116.36,134.86C116.012,135.24 116.012,135.83 116.36,136.21C116.541,136.408 116.802,136.514 117.07,136.5C117.32,136.496 117.558,136.391 117.73,136.21L118.65,135.29C119.868,136.324 121.283,137.099 122.81,137.57C122.835,137.572 122.86,137.573 122.885,137.573C123.434,137.573 123.885,137.121 123.885,136.573C123.885,136.274 123.751,135.99 123.52,135.8L123.36,135.8C119.225,134.537 116.38,130.694 116.38,126.37C116.38,120.961 120.831,116.51 126.24,116.51C131.649,116.51 136.1,120.961 136.1,126.37C136.1,131.772 131.662,136.219 126.26,136.23C126.239,136.229 126.219,136.228 126.198,136.228C125.682,136.228 125.258,136.652 125.258,137.168C125.258,137.189 125.259,137.209 125.26,137.23L125.26,139.45C125.259,139.977 125.674,140.418 126.2,140.45L126.32,140.45L126.33,140.28ZM126.22,134.86C126.223,134.86 126.227,134.86 126.23,134.86C130.937,134.86 134.81,130.987 134.81,126.28C134.81,121.573 130.937,117.7 126.23,117.7C121.523,117.7 117.65,121.573 117.65,126.28C117.655,130.981 121.519,134.849 126.22,134.86ZM127.22,132.86L127.22,129L127.49,128.89L130.26,131.66C129.352,132.328 128.288,132.751 127.17,132.89L127.22,132.86ZM125.32,132.86C124.23,132.7 123.198,132.266 122.32,131.6L125.09,128.83L125.36,128.94L125.32,132.86ZM131.61,130.25L128.84,127.48L128.96,127.2L132.87,127.2C132.704,128.322 132.253,129.382 131.56,130.28L131.61,130.25ZM120.93,130.25C120.267,129.37 119.834,128.339 119.67,127.25L123.58,127.25C123.614,127.346 123.654,127.439 123.7,127.53L120.93,130.25ZM126.27,127.25C125.721,127.25 125.27,126.799 125.27,126.25C125.27,125.701 125.721,125.25 126.27,125.25C126.819,125.25 127.27,125.701 127.27,126.25C127.271,126.269 127.272,126.289 127.272,126.308C127.272,126.818 126.852,127.238 126.342,127.238C126.301,127.238 126.26,127.235 126.22,127.23L126.27,127.25ZM132.87,125.35L128.96,125.35C128.96,125.25 128.88,125.17 128.84,125.08L131.61,122.31C132.259,123.2 132.675,124.238 132.82,125.33L132.87,125.35ZM123.58,125.35L119.67,125.35C119.833,124.26 120.266,123.229 120.93,122.35L123.7,125.12C123.639,125.186 123.582,125.257 123.53,125.33L123.58,125.35ZM127.5,123.73C127.411,123.68 127.317,123.64 127.22,123.61L127.22,119.69C128.31,119.856 129.342,120.292 130.22,120.96L127.5,123.73ZM125.04,123.73L122.28,120.96C123.156,120.289 124.188,119.852 125.28,119.69L125.28,123.61C125.183,123.633 125.089,123.667 125,123.71L125.04,123.73Z" style="fill:rgb(77,77,77);fill-rule:nonzero;"/>
        <g id="planovanim">
            <path id="button" d="M168,26C168,20.481 163.519,16 158,16L28,16C22.481,16 18,20.481 18,26L18,46C18,51.519 22.481,56 28,56L158,56C163.519,56 168,51.519 168,46L168,26Z" style="fill:rgb(217,217,217);"/>
            <g id="Plánováním-2" transform="matrix(1,0,0,1,38.93,43)">
                <text x="0px" y="0px" style="font-family:'SegoeUI-Bold', 'Segoe UI', sans-serif;font-weight:700;font-size:16px;fill:rgb(51,51,51);">PLÁNO</text>
                <g transform="matrix(1,0,0,1,54.03,0)">
                    <text x="0px" y="0px" style="font-family:'SegoeUI-Bold', 'Segoe UI', sans-serif;font-weight:700;font-size:16px;fill:rgb(51,51,51);">V</text>
                </g>
                <g transform="matrix(1,0,0,1,63.88,0)">
                    <text x="0px" y="0px" style="font-family:'SegoeUI-Bold', 'Segoe UI', sans-serif;font-weight:700;font-size:16px;fill:rgb(51,51,51);">ÁNÍM</text>
                </g>
            </g>
        </g>
        <g id="poznanim">
            <path id="button-2" d="M185,170C185,164.481 180.519,160 175,160L27,160C21.481,160 17,164.481 17,170L17,190C17,195.519 21.481,200 27,200L175,200C180.519,200 185,195.519 185,190L185,170Z" style="fill:rgb(217,217,217);"/>
            <g id="Poznáním_sebe-2" transform="matrix(1,0,0,1,36.53,187)">
                <text x="0px" y="0px" style="font-family:'SegoeUI-Bold', 'Segoe UI', sans-serif;font-weight:700;font-size:16px;fill:rgb(51,51,51);">P</text>
                <g transform="matrix(1,0,0,1,9.83,0)">
                    <text x="0px" y="0px" style="font-family:'SegoeUI-Bold', 'Segoe UI', sans-serif;font-weight:700;font-size:16px;fill:rgb(51,51,51);">O</text>
                </g>
                <g transform="matrix(1,0,0,1,21.64,0)">
                    <text x="0px" y="0px" style="font-family:'SegoeUI-Bold', 'Segoe UI', sans-serif;font-weight:700;font-size:16px;fill:rgb(51,51,51);">ZNÁNÍM SEBE</text>
                </g>
            </g>
        </g>
        <g id="zmapovanim">
            <path id="button-3" d="M282,240C282,234.481 277.519,230 272,230L124,230C118.481,230 114,234.481 114,240L114,270C114,275.519 118.481,280 124,280L272,280C277.519,280 282,275.519 282,270L282,240Z" style="fill:rgb(217,217,217);"/>
            <g id="Zmapováním_možností">
                <g transform="matrix(1,0,0,1,141.82,252)">
                    <text x="0px" y="0px" style="font-family:'SegoeUI-Bold', 'Segoe UI', sans-serif;font-weight:700;font-size:16px;fill:rgb(51,51,51);">ZMAPO</text>
                    <g transform="matrix(1,0,0,1,58.23,0)">
                        <text x="0px" y="0px" style="font-family:'SegoeUI-Bold', 'Segoe UI', sans-serif;font-weight:700;font-size:16px;fill:rgb(51,51,51);">V</text>
                    </g>
                    <g transform="matrix(1,0,0,1,68.08,0)">
                        <text x="0px" y="0px" style="font-family:'SegoeUI-Bold', 'Segoe UI', sans-serif;font-weight:700;font-size:16px;fill:rgb(51,51,51);">ÁNÍM</text>
                    </g>
                </g>
                <g transform="matrix(1,0,0,1,155.48,272)">
                    <text x="0px" y="0px" style="font-family:'SegoeUI-Bold', 'Segoe UI', sans-serif;font-weight:700;font-size:16px;fill:rgb(51,51,51);">M</text>
                    <g transform="matrix(1,0,0,1,15.31,0)">
                        <text x="0px" y="0px" style="font-family:'SegoeUI-Bold', 'Segoe UI', sans-serif;font-weight:700;font-size:16px;fill:rgb(51,51,51);">O</text>
                    </g>
                    <g transform="matrix(1,0,0,1,27.14,0)">
                        <text x="0px" y="0px" style="font-family:'SegoeUI-Bold', 'Segoe UI', sans-serif;font-weight:700;font-size:16px;fill:rgb(51,51,51);">ŽNOSTÍ</text>
                    </g>
                </g>
            </g>
        </g>
    </g>
</svg>
