<?xml version="1.0" encoding="UTF-8" standalone="no"?>
<svg
   viewBox="0 0 143.88 150"
   version="1.1"
   id="svg217"
   sodipodi:docname="ship_icon.svg"
   inkscape:version="1.1.1 (3bf5ae0d25, 2021-09-20)"
   width="143.88"
   height="150"
   xmlns:inkscape="http://www.inkscape.org/namespaces/inkscape"
   xmlns:sodipodi="http://sodipodi.sourceforge.net/DTD/sodipodi-0.dtd"
   xmlns="http://www.w3.org/2000/svg"
   xmlns:svg="http://www.w3.org/2000/svg"
   xmlns:rdf="http://www.w3.org/1999/02/22-rdf-syntax-ns#"
   xmlns:cc="http://creativecommons.org/ns#"
   xmlns:dc="http://purl.org/dc/elements/1.1/">
  <sodipodi:namedview
     id="namedview219"
     pagecolor="#ffffff"
     bordercolor="#666666"
     borderopacity="1.0"
     inkscape:pageshadow="2"
     inkscape:pageopacity="0.0"
     inkscape:pagecheckerboard="0"
     showgrid="false"
     inkscape:zoom="3.9236094"
     inkscape:cx="104.62305"
     inkscape:cy="83.978798"
     inkscape:window-width="1920"
     inkscape:window-height="1009"
     inkscape:window-x="1912"
     inkscape:window-y="-8"
     inkscape:window-maximized="1"
     inkscape:current-layer="rozcestník" />
  <defs
     id="defs4">
    <style
       id="style2">#_2, #_3, #_4, #Možnosti_Trh_práce_, #SEBEPREZENTACE, #SEBEŘÍZENÍ_ {display: none;}.cls-1{fill:#b3b3b3;}.cls-2{fill:gray;}.cls-3{fill:#4d4d4d;}.cls-4{fill:#c1d977;}.cls-10,.cls-5,.cls-6{isolation:isolate;}.cls-6{font-size:24px;fill:#333;font-family:SegoeUI-Bold, Segoe UI;font-weight:700;}.cls-7{fill:#c2e2f2;}.cls-8{fill:#f2b99d;}.cls-9{fill:#e6b8e2;}.cls-10{font-size:12px;fill:#161615;font-family:SegoeUI, Segoe UI;}.cls-11{letter-spacing:-0.01em;}.cls-12{letter-spacing:-0.01em;}.cls-13{letter-spacing:-0.01em;}.cls-14{letter-spacing:0em;}.cls-15{letter-spacing:0em;}.cls-16{letter-spacing:-0.01em;}.cls-17{letter-spacing:-0.03em;}.cls-18{letter-spacing:-0.03em;}.cls-19{font-size:11px;}.cls-20{letter-spacing:0em;}.cls-21{letter-spacing:-0.01em;}.cls-22{letter-spacing:0em;}.cls-23{letter-spacing:0em;}.cls-24{letter-spacing:0em;}.cls-25{letter-spacing:0.01em;}.cls-26{letter-spacing:0em;}.cls-27{letter-spacing:-0.06em;}.cls-28{letter-spacing:0.01em;}.cls-29{letter-spacing:0em;}.cls-30{letter-spacing:0em;}.cls-31{letter-spacing:-0.01em;}.cls-32{letter-spacing:-0.01em;}.cls-33{letter-spacing:-0.02em;}.cls-34{letter-spacing:-0.01em;}.cls-35{letter-spacing:-0.02em;}.cls-36{letter-spacing:0.02em;}.cls-37{letter-spacing:-0.01em;}.cls-38{letter-spacing:-0.01em;}.cls-39{letter-spacing:-0.07em;}.cls-40{letter-spacing:-0.03em;}.cls-41{letter-spacing:-0.04em;}.cls-42{letter-spacing:-0.01em;}.cls-43{letter-spacing:-0.01em;}.cls-44{letter-spacing:-0.01em;}.cls-45{letter-spacing:-0.01em;}.cls-46{letter-spacing:-0.01em;}.cls-47{letter-spacing:-0.01em;}.cls-48{letter-spacing:-0.01em;}.cls-49{letter-spacing:0em;}.cls-50{letter-spacing:0em;}.cls-51{letter-spacing:0em;}.cls-52{letter-spacing:-0.01em;}.cls-53{letter-spacing:0em;}.cls-54{letter-spacing:-0.01em;}.cls-55{letter-spacing:-0.02em;}.cls-56{letter-spacing:0em;}.cls-57{letter-spacing:0em;}.cls-58{letter-spacing:0em;}.cls-59{letter-spacing:-0.01em;}</style>
  </defs>
  <title
     id="title6">rozcestnik_typo</title>
  <g
     id="rozcestník">
    <g
       id="g926"
       transform="translate(-1.5044647,0.11723312)">
      <rect
         class="cls-2"
         x="-86.109459"
         y="-119.19276"
         width="3.0599999"
         height="116.25"
         transform="scale(-1)"
         id="rect12"
         style="fill:#000000" />
      <circle
         class="cls-2"
         cx="84.579468"
         cy="2.5627658"
         r="2.6800001"
         id="circle14"
         style="fill:#000000" />
      <path
         class="cls-2"
         d="m 80.809467,91.552771 a 1,1 0 0 0 -0.83,-0.45 h -19.04 l -6.43,-9.51 a 1,1 0 0 0 -0.83,-0.43 h -16.16 a 1,1 0 0 0 -1,1 V 108.71277 H 5.3694672 a 1,1 0 0 0 -1,1 v 9.95 a 1,1 0 0 0 1,1 H 72.719467 a 1,1 0 0 0 1,-1 v -15.88 h 1.78 a 1,1 0 0 0 0.93,-0.61 l 4.48,-10.719999 a 1,1 0 0 0 -0.1,-0.9 z M 6.3694672,110.71277 H 36.519467 v 7.95 H 6.3694672 Z m 65.3499998,7.95 h -33.2 v -14.88 h 33.2 z m 3.09,-16.88 h -36.29 V 83.162771 h 14.63 l 6.43,9.51 a 1,1 0 0 0 0.83,0.43 h 18.08 z"
         id="path16"
         style="fill:#000000" />
      <polygon
         class="cls-3"
         points="237,165.73 93.12,165.73 93.12,186.39 108.42,197.1 211.81,197.1 "
         id="polygon18"
         style="fill:#000000"
         transform="translate(-91.190533,-47.217232)" />
      <polygon
         class="cls-1"
         points="178.83,53.99 178.83,138.18 237,138.18 "
         id="polygon20"
         style="fill:#000000"
         transform="translate(-91.190533,-47.217232)" />
      <polygon
         class="cls-1"
         points="172.71,56.29 172.71,125.17 111.49,125.17 "
         id="polygon22"
         style="fill:#000000"
         transform="translate(-91.190533,-47.217232)" />
      <path
         class="cls-3"
         d="m 16.139467,107.21277 a 1,1 0 0 0 0.91,-1 v -1.43 a 12.51,12.51 0 0 0 7.11,-2.95 l 1,1 a 1.06,1.06 0 0 0 0.83,0.31 1,1 0 0 0 0.92,-1.11 1,1 0 0 0 -0.31,-0.65 l -1,-1 a 12.52,12.52 0 0 0 3,-7.129999 h 1.51 a 1.0264745,1.0264745 0 1 0 -0.11,-2.05 h -1.4 a 12.61,12.61 0 0 0 -3,-7.13 l 1,-1 a 1.0217754,1.0217754 0 0 0 -1.44,-1.45 l -1,1 a 12.43,12.43 0 0 0 -7.12,-3 v -1.41 a 1,1 0 1 0 -2,0 v 1.44 a 12.4,12.4 0 0 0 -7.1199998,3 l -1,-1 a 1,1 0 0 0 -1.45,0 1,1 0 0 0 0,1.45 l 1,1 a 12.53,12.53 0 0 0 -2.95,7.13 H 2.0794673 a 1,1 0 0 0 -1.0000001,1 1,1 0 0 0 1.0000001,1 h 1.4399999 a 12.5,12.5 0 0 0 2.95,7.129999 l -1,1 a 1,1 0 0 0 0.75,1.76 1,1 0 0 0 0.7,-0.31 l 1,-1 a 12.46,12.46 0 0 0 4.4499998,2.43 1.0185406,1.0185406 0 1 0 0.76,-1.89 l -0.17,-0.05 a 10.59,10.59 0 1 1 3.11,0.45 1,1 0 0 0 -1,1 v 2.38 a 1,1 0 0 0 1,1 h 0.12 z m -0.11,-5.8 a 9.2,9.2 0 1 0 -9.2199998,-9.189999 9.2,9.2 0 0 0 9.2199998,9.189999 z m 1,-2.119999 v -4.19 a 1.69,1.69 0 0 0 0.28,-0.12 l 3,3 a 7,7 0 0 1 -3.26,1.31 z m -2,0 a 7.1,7.1 0 0 1 -3.26,-1.34 l 3,-3 a 1.48,1.48 0 0 0 0.29,0.12 z m 6.74,-2.78 -3,-3 c 0,-0.1 0.09,-0.2 0.13,-0.3 h 4.19 a 7.21,7.21 0 0 1 -1.34,3.3 z m -11.44,0 a 7.1,7.1 0 0 1 -1.3499998,-3.27 h 4.1899998 c 0,0.1 0.08,0.2 0.12,0.3 z m 5.72,-3.27 a 1,1 0 1 1 1,-1 1,1 0 0 1 -1.02,1 z m 7.07,-2.05 h -4.21 c 0,-0.09 -0.08,-0.19 -0.13,-0.28 l 3,-3 a 7.13,7.13 0 0 1 1.32,3.28 z m -10,0 H 8.9294672 a 7,7 0 0 1 1.3499998,-3.25 l 3,3 c -0.05,0.06 -0.1,0.16 -0.13,0.25 z m 4.2,-1.73 -0.3,-0.13 v -4.19 a 7.07,7.07 0 0 1 3.25,1.35 z m -2.64,0 -3,-3 a 7.06,7.06 0 0 1 3.26,-1.35 v 4.19 z"
         id="path24"
         style="fill:#000000" />
    </g>
    <g
       id="_2"
       data-name="2">
      <rect
         id="button-2"
         class="cls-7"
         x="48"
         y="210"
         width="40"
         height="40"
         rx="10" />
      <g
         id="_2-2"
         data-name=" 2-2"
         class="cls-5">
        <text
           class="cls-6"
           transform="translate(61.1,238)"
           id="text32">2</text>
      </g>
    </g>
    <g
       id="_3"
       data-name="3">
      <rect
         id="button-3"
         class="cls-8"
         x="62"
         y="81"
         width="40"
         height="40"
         rx="10" />
      <g
         id="_3-2"
         data-name=" 3"
         class="cls-5">
        <text
           class="cls-6"
           transform="translate(75.1,109)"
           id="text37">3</text>
      </g>
    </g>
    <g
       id="_4"
       data-name="4">
      <rect
         id="button-2-2"
         data-name="button"
         class="cls-9"
         x="67"
         width="40"
         height="40"
         rx="10"
         y="0" />
      <g
         id="_4-2"
         data-name=" 4"
         class="cls-5">
        <text
           class="cls-6"
           transform="translate(80.1,28)"
           id="text42">4</text>
      </g>
    </g>
    <g
       id="Možnosti_Trh_práce_"
       data-name="Možnosti Trh práce "
       class="cls-5">
      <text
         class="cls-10"
         transform="translate(92.53,246.64)"
         id="text96"><tspan
           class="cls-11"
           id="tspan46">I</tspan><tspan
           class="cls-12"
           x="3.0699999"
           y="0"
           id="tspan48">N</tspan><tspan
           class="cls-13"
           x="11.93"
           y="0"
           id="tspan50">F</tspan><tspan
           class="cls-14"
           x="17.690001"
           y="0"
           id="tspan52">O</tspan><tspan
           class="cls-15"
           x="26.690001"
           y="0"
           id="tspan54">R</tspan><tspan
           class="cls-16"
           x="33.830002"
           y="0"
           id="tspan56">M</tspan><tspan
           class="cls-17"
           x="44.529999"
           y="0"
           id="tspan58">A</tspan><tspan
           class="cls-18"
           x="51.939999"
           y="0"
           id="tspan60">C</tspan><tspan
           x="59.060001"
           y="0"
           id="tspan62">E</tspan><tspan
           class="cls-19"
           id="tspan94"><tspan
             class="cls-20"
             x="0"
             y="13.2"
             id="tspan64">M</tspan><tspan
             class="cls-21"
             x="9.8599997"
             y="13.2"
             id="tspan66">o</tspan><tspan
             class="cls-22"
             x="16.18"
             y="13.2"
             id="tspan68">ž</tspan><tspan
             class="cls-23"
             x="21.139999"
             y="13.2"
             id="tspan70">n</tspan><tspan
             class="cls-24"
             x="27.389999"
             y="13.2"
             id="tspan72">o</tspan><tspan
             class="cls-25"
             x="33.810001"
             y="13.2"
             id="tspan74">s</tspan><tspan
             class="cls-26"
             x="38.57"
             y="13.2"
             id="tspan76">t</tspan><tspan
             x="42.259998"
             y="13.2"
             id="tspan78">i</tspan><tspan
             class="cls-27"
             x="0"
             y="26.4"
             id="tspan80">T</tspan><tspan
             class="cls-28"
             x="5.0500002"
             y="26.4"
             id="tspan82">r</tspan><tspan
             x="8.9499998"
             y="26.4"
             id="tspan84">h p</tspan><tspan
             class="cls-29"
             x="24.65"
             y="26.4"
             id="tspan86">r</tspan><tspan
             class="cls-30"
             x="28.49"
             y="26.4"
             id="tspan88">á</tspan><tspan
             class="cls-31"
             x="34.110001"
             y="26.4"
             id="tspan90">c</tspan><tspan
             x="39.130001"
             y="26.4"
             id="tspan92">e</tspan></tspan></text>
    </g>
    <g
       id="SEBEPREZENTACE"
       class="cls-5">
      <text
         class="cls-10"
         transform="translate(111.81,29.2)"
         id="text127"><tspan
           class="cls-32"
           id="tspan99">S</tspan><tspan
           class="cls-33"
           x="6.1999998"
           y="0"
           id="tspan101">E</tspan><tspan
           class="cls-34"
           x="12.07"
           y="0"
           id="tspan103">B</tspan><tspan
           class="cls-33"
           x="18.860001"
           y="0"
           id="tspan105">E</tspan><tspan
           class="cls-35"
           x="24.73"
           y="0"
           id="tspan107">P</tspan><tspan
           class="cls-15"
           x="31.209999"
           y="0"
           id="tspan109">R</tspan><tspan
           class="cls-36"
           x="38.360001"
           y="0"
           id="tspan111">E</tspan><tspan
           class="cls-37"
           x="44.619999"
           y="0"
           id="tspan113">Z</tspan><tspan
           class="cls-33"
           x="51.330002"
           y="0"
           id="tspan115">E</tspan><tspan
           class="cls-38"
           x="57.189999"
           y="0"
           id="tspan117">N</tspan><tspan
           class="cls-39"
           x="66.040001"
           y="0"
           id="tspan119">T</tspan><tspan
           class="cls-40"
           x="71.489998"
           y="0"
           id="tspan121">A</tspan><tspan
           class="cls-18"
           x="78.889999"
           y="0"
           id="tspan123">C</tspan><tspan
           x="86.019997"
           y="0"
           id="tspan125">E</tspan></text>
    </g>
    <g
       id="SEBEŘÍZENÍ_"
       data-name="SEBEŘÍZENÍ "
       class="cls-5">
      <text
         class="cls-10"
         transform="translate(13.04,134.79)"
         id="text213"><tspan
           class="cls-32"
           id="tspan155">S</tspan><tspan
           class="cls-33"
           x="6.1999998"
           y="0"
           id="tspan157">E</tspan><tspan
           class="cls-34"
           x="12.07"
           y="0"
           id="tspan159">B</tspan><tspan
           class="cls-33"
           x="18.860001"
           y="0"
           id="tspan161">E</tspan><tspan
           class="cls-15"
           x="24.73"
           y="0"
           id="tspan163">Ř</tspan><tspan
           class="cls-46"
           x="31.879999"
           y="0"
           id="tspan165">Í</tspan><tspan
           class="cls-37"
           x="34.959999"
           y="0"
           id="tspan167">Z</tspan><tspan
           class="cls-33"
           x="41.669998"
           y="0"
           id="tspan169">E</tspan><tspan
           class="cls-47"
           x="47.540001"
           y="0"
           id="tspan171">N</tspan><tspan
           x="56.41"
           y="0"
           id="tspan173">Í</tspan><tspan
           class="cls-19"
           id="tspan211"><tspan
             class="cls-48"
             x="0"
             y="13.2"
             id="tspan175">P</tspan><tspan
             class="cls-49"
             x="6.0500002"
             y="13.2"
             id="tspan177">l</tspan><tspan
             class="cls-50"
             x="8.6800003"
             y="13.2"
             id="tspan179">á</tspan><tspan
             class="cls-51"
             x="14.26"
             y="13.2"
             id="tspan181">n</tspan><tspan
             class="cls-52"
             x="20.51"
             y="13.2"
             id="tspan183">o</tspan><tspan
             class="cls-20"
             x="26.889999"
             y="13.2"
             id="tspan185">vá</tspan><tspan
             class="cls-53"
             x="37.720001"
             y="13.2"
             id="tspan187">n</tspan><tspan
             x="43.919998"
             y="13.2"
             id="tspan189">í</tspan><tspan
             class="cls-54"
             x="0"
             y="26.4"
             id="tspan191">R</tspan><tspan
             class="cls-55"
             x="6.4699998"
             y="26.4"
             id="tspan193">o</tspan><tspan
             class="cls-56"
             x="12.74"
             y="26.4"
             id="tspan195">z</tspan><tspan
             class="cls-23"
             x="17.700001"
             y="26.4"
             id="tspan197">h</tspan><tspan
             class="cls-57"
             x="23.950001"
             y="26.4"
             id="tspan199">o</tspan><tspan
             class="cls-58"
             x="30.450001"
             y="26.4"
             id="tspan201">d</tspan><tspan
             class="cls-59"
             x="36.91"
             y="26.4"
             id="tspan203">o</tspan><tspan
             class="cls-20"
             x="43.279999"
             y="26.4"
             id="tspan205">vá</tspan><tspan
             class="cls-53"
             x="54.119999"
             y="26.4"
             id="tspan207">n</tspan><tspan
             x="60.310001"
             y="26.4"
             id="tspan209">í</tspan></tspan></text>
    </g>
  </g>
  <metadata
     id="metadata1118">
    <rdf:RDF>
      <cc:Work
         rdf:about="">
        <dc:title>rozcestnik_typo</dc:title>
      </cc:Work>
    </rdf:RDF>
  </metadata>
  <metadata
     id="metadata1921">
    <rdf:RDF>
      <cc:Work
         rdf:about="">
        <dc:title>rozcestnik_typo</dc:title>
      </cc:Work>
    </rdf:RDF>
  </metadata>
  <metadata
     id="metadata1923">
    <rdf:RDF>
      <cc:Work
         rdf:about="">
        <dc:title>rozcestnik_typo</dc:title>
      </cc:Work>
    </rdf:RDF>
  </metadata>
</svg>
