<svg xmlns="http://www.w3.org/2000/svg" viewBox="0 0 150 150"><defs><style>.cls-1{fill:#b3b3b3;}</style></defs><title>01</title><g id="_01" data-name="01"><path class="cls-1" d="M75.48,150A5.1,5.1,0,0,0,80,144.83v-7.08A62.69,62.69,0,0,0,115.56,123l5,5a5.11,5.11,0,1,0,7.23-7.23l-5-5a62.62,62.62,0,0,0,14.77-35.65h7.55a5.12,5.12,0,0,0-.53-10.22h-7a62.84,62.84,0,0,0-14.77-35.66l5-5a5.12,5.12,0,1,0-7.23-7.24l-5,5A62.55,62.55,0,0,0,80,12.21v-7A5.1,5.1,0,1,0,69.8,5v7.17A62.55,62.55,0,0,0,34.19,27.06l-5-5A5.12,5.12,0,0,0,22,29.29l5,5A62.84,62.84,0,0,0,12.19,69.9h-7A5.11,5.11,0,0,0,5,80.12h7.16A62.75,62.75,0,0,0,27,115.77l-5,5A5.11,5.11,0,1,0,29.2,128l4.94-4.95a62.61,62.61,0,0,0,22.27,12.19,5.11,5.11,0,0,0,3.82-9.48,4.92,4.92,0,0,0-.85-.26A52.85,52.85,0,1,1,74.9,127.8a5.1,5.1,0,0,0-5.1,5.11v11.92a5.1,5.1,0,0,0,5,5.16h.63Zm-.58-29A46,46,0,1,0,29,75,46,46,0,0,0,74.9,121ZM80,110.4v-21a14,14,0,0,0,1.44-.59l14.82,14.85A35.38,35.38,0,0,1,80,110.4Zm-10.2,0a35.38,35.38,0,0,1-16.26-6.71L68.36,88.84a14,14,0,0,0,1.44.59Zm33.69-14L88.66,81.61a14.85,14.85,0,0,0,.64-1.49h20.94A35.44,35.44,0,0,1,103.49,96.45Zm-57.18,0a35.44,35.44,0,0,1-6.75-16.33H60.5a14.85,14.85,0,0,0,.64,1.49ZM74.9,80.12A5.11,5.11,0,1,1,80,75,5,5,0,0,1,74.9,80.12ZM110.24,69.9H89.3a13.16,13.16,0,0,0-.64-1.44l14.83-14.85A35.44,35.44,0,0,1,110.24,69.9Zm-49.74,0H39.56a35.44,35.44,0,0,1,6.75-16.29L61.14,68.46A13.16,13.16,0,0,0,60.5,69.9Zm21-8.68c-.48-.23-1-.45-1.49-.64v-21a35.18,35.18,0,0,1,16.26,6.75Zm-13.18,0L53.54,46.37A35.18,35.18,0,0,1,69.8,39.62v21C69.29,60.77,68.79,61,68.31,61.22Z"/></g></svg>