<svg xmlns="http://www.w3.org/2000/svg" viewBox="0 0 150 150"><defs><style>.cls-1{fill:#b3b3b3;}</style></defs><title>02</title><g id="_02" data-name="02"><path class="cls-1" d="M33.33,0A16.74,16.74,0,0,0,16.67,16.67V133.33A16.74,16.74,0,0,0,33.33,150h95a5,5,0,0,0,5-5V5a5,5,0,0,0-5-5Zm0,10h90V140h-80V33.33H115a5,5,0,0,0,.14-10H33.33a6.61,6.61,0,0,1-6.66-6.19v-.47A6.54,6.54,0,0,1,33.33,10ZM26.67,31.93a16.48,16.48,0,0,0,6.66,1.4V140a6.54,6.54,0,0,1-6.66-6.67Zm29.48,11.4a5,5,0,1,0,.52,10H110a5,5,0,0,0,.14-10h-54ZM64.48,60A5,5,0,1,0,65,70h36.67a5,5,0,0,0,.14-10H64.48Z"/></g></svg>