<svg xmlns="http://www.w3.org/2000/svg" viewBox="0 0 150 150"><defs><style>.cls-1{fill:#b3b3b3;}</style></defs><title>03</title><g id="_03" data-name="03"><path class="cls-1" d="M58.78,0a4.55,4.55,0,0,0-1.66.37C39.35,7.72,26.79,25.64,26.79,46.67a50.23,50.23,0,0,0,24.1,43.17V145a4.91,4.91,0,0,0,4.82,5H94.29a4.91,4.91,0,0,0,4.82-5V103.33a4.83,4.83,0,1,0-9.65-.14V140H60.54V87a5,5,0,0,0-2.67-4.48A40.12,40.12,0,0,1,36.43,46.67,39.9,39.9,0,0,1,54.11,13.28V50a4.91,4.91,0,0,0,4.82,5H91.07a4.91,4.91,0,0,0,4.82-5V13.28a39.9,39.9,0,0,1,17.68,33.39A40.12,40.12,0,0,1,92.13,82.5,5.09,5.09,0,0,0,90,89.22a4.75,4.75,0,0,0,6.48,2.24,50.2,50.2,0,0,0,26.76-44.79c0-21-12.56-38.95-30.33-46.3A4.76,4.76,0,0,0,86.6,3.13,5.17,5.17,0,0,0,86.25,5V45H63.75V5a4.91,4.91,0,0,0-4.82-5Z"/></g></svg>