<svg xmlns="http://www.w3.org/2000/svg" viewBox="0 0 150 150"><defs><style>.cls-1{fill:#b3b3b3;}</style></defs><title>04</title><g id="_04" data-name="04"><path class="cls-1" d="M144.73,15A5.07,5.07,0,0,0,140,20.4v3.42H5a5.06,5.06,0,0,0-5,5.11,5.21,5.21,0,0,0,1.27,3.44l37,42.73-37,42.73a5.23,5.23,0,0,0,.4,7.25A4.91,4.91,0,0,0,5,126.38H131.66a5.13,5.13,0,0,0,.14-10.26H16.17L36.21,93H140v36.8a5,5,0,1,0,10,.14V20.4a4.69,4.69,0,0,0,0-.53A5.05,5.05,0,0,0,144.73,15ZM36,57,16.17,34.08H140V57Z"/></g></svg>