<svg xmlns="http://www.w3.org/2000/svg" viewBox="0 0 150 150"><defs><style>.cls-1{fill:#b3b3b3;}</style></defs><title>05</title><g id="_05" data-name="05"><path class="cls-1" d="M75,0a75,75,0,1,0,73.65,89.32,5,5,0,0,0-9.85-1.92A65,65,0,0,1,80,139.79v-8.12a5,5,0,0,0-4.9-5.11H75a5,5,0,0,0-5,5.05v8.18A64.86,64.86,0,0,1,10.21,80h8.12a5,5,0,0,0,.14-10H10.21A64.91,64.91,0,0,1,70,10.21v8.12a5,5,0,0,0,10,.14V10.21A64.71,64.71,0,0,1,139.48,70h-7.81a5,5,0,1,0-.14,10H145a5,5,0,0,0,5-5A75.08,75.08,0,0,0,75,0Zm34.9,35a5,5,0,0,0-2.35.63l-45,25a5.11,5.11,0,0,0-1.93,1.93l-25,45a5,5,0,0,0,6.82,6.82l45-25a5.11,5.11,0,0,0,1.93-1.93l25-45A5,5,0,0,0,109.9,35ZM66.2,73.23,76.77,83.8,52.92,97.08Z"/></g></svg>