<svg xmlns="http://www.w3.org/2000/svg" viewBox="0 0 150 150"><defs><style>.cls-1{fill:#b3b3b3;}</style></defs><title>06</title><g id="_06" data-name="06"><path class="cls-1" d="M75,30.65a13.58,13.58,0,0,0-4.06,26.53V68.62H48.88a4.08,4.08,0,0,0,.42,8.14H70.94v64.93a40.12,40.12,0,0,1-35.38-29.88A4.07,4.07,0,0,0,40,105.07l-6.77-6.78a4,4,0,0,0-5.74,0l-6.77,6.78a4.07,4.07,0,1,0,5.75,5.73l.51-.47c3.83,22.52,24,39.67,48,39.67s44.19-17.15,48-39.67l.51.47a4.06,4.06,0,1,0,6.11-5.36,4.17,4.17,0,0,0-.36-.37l-6.77-6.78a4,4,0,0,0-5.74,0L110,105.07a4.08,4.08,0,0,0-.25,5.75,4,4,0,0,0,4.69,1,40.09,40.09,0,0,1-35.38,29.92V57.18A13.58,13.58,0,0,0,75,30.65Zm0,8.14a5.43,5.43,0,1,1-5.41,5.42A5.35,5.35,0,0,1,75,38.79ZM88.1,68.62a4.08,4.08,0,0,0,.43,8.14H100.7a4.07,4.07,0,0,0,.12-8.14H88.1Z"/><path class="cls-1" d="M70.94,41.29c.12,1.71,2,3,4.27,2.94s4-1.55,3.85-3.27V3.73C79.09,2,77.3.6,75.06.57S71,1.92,70.94,3.64V41A1.82,1.82,0,0,0,70.94,41.29Z"/><path class="cls-1" d="M61.26,12c-1.76,1.93-1.82,4.71-.14,6.2s4.47,1.14,6.23-.79l10-10c1.87-1.83,2.12-4.62.56-6.23s-4.33-1.45-6.2.38l-.09.09-10,10Z"/><path class="cls-1" d="M88.4,11.63l-10-10-.1-.1c-1.86-1.83-4.64-2-6.2-.38s-1.31,4.4.56,6.23l10,10.05c1.76,1.93,4.55,2.29,6.23.79s1.62-4.27-.14-6.2Z"/></g></svg>