<svg xmlns="http://www.w3.org/2000/svg" viewBox="0 0 150 150"><defs><style>.cls-1{fill:#b3b3b3;}</style></defs><title>07</title><g id="_07" data-name="07"><path class="cls-1" d="M99.51,70.75H73.24A48.47,48.47,0,0,0,82,43V37.7s0,0,0,0,0,0,0-.05V17.51a17.91,17.91,0,0,0-35.81,0V43a4.15,4.15,0,0,0,1.27,3,40.4,40.4,0,0,1,12.21,27.5A48.58,48.58,0,0,0,46.16,107v25.46a17.91,17.91,0,0,0,35.81,0V112.37s0,0,0-.05a0,0,0,0,1,0,0V107a4.23,4.23,0,0,0-1.27-3A40.45,40.45,0,0,1,68.63,79.25H99.51a4.25,4.25,0,1,0,0-8.5ZM64.06,8.49a9.14,9.14,0,0,1,9.22,9v5.23a17.76,17.76,0,0,0-18.44,0V17.51A9.14,9.14,0,0,1,64.06,8.49ZM54.84,37.68h0a9.22,9.22,0,0,1,18.44-.05V43a40.11,40.11,0,0,1-6.07,21.29,48.86,48.86,0,0,0-12.37-23Zm9.22,103.83a9.14,9.14,0,0,1-9.22-9v-5.23a17.82,17.82,0,0,0,18.44,0v5.23A9.14,9.14,0,0,1,64.06,141.51Zm9.22-29.14a9.22,9.22,0,0,1-18.44-.05V107a40.11,40.11,0,0,1,6.07-21.29,48.84,48.84,0,0,0,12.37,23Z"/></g></svg>