<svg xmlns="http://www.w3.org/2000/svg" viewBox="0 0 150 150"><defs><style>.cls-1{fill:#b3b3b3;}</style></defs><title>08</title><g id="_08" data-name="08"><path class="cls-1" d="M50.87,91.29a4.3,4.3,0,0,0,3.71.29,57.28,57.28,0,0,1,40.77,0,4.35,4.35,0,0,0,3.73-.29,5.16,5.16,0,0,0,2.42-3.11,5.53,5.53,0,0,0-3.07-6.82,66,66,0,0,0-46.92,0,5.54,5.54,0,0,0-3.07,6.81A5.2,5.2,0,0,0,50.87,91.29Z"/><path class="cls-1" d="M32.12,120.36a5.22,5.22,0,0,0,5,5.39h75.64a5.41,5.41,0,0,0,0-10.79H37.15A5.23,5.23,0,0,0,32.12,120.36Z"/><path class="cls-1" d="M75,49.85A16.08,16.08,0,1,0,58.9,33.78,16.1,16.1,0,0,0,75,49.85ZM68.78,33.78A6.2,6.2,0,1,1,75,40,6.2,6.2,0,0,1,68.78,33.78Z"/><path class="cls-1" d="M48.44,72a5.18,5.18,0,0,0,2.43,3.11,4.3,4.3,0,0,0,3.71.3,57.17,57.17,0,0,1,40.77,0,4.66,4.66,0,0,0,1.55.28,4.4,4.4,0,0,0,2.18-.58A5.14,5.14,0,0,0,101.5,72a5.54,5.54,0,0,0-3.07-6.83,66,66,0,0,0-46.92,0A5.55,5.55,0,0,0,48.44,72Z"/><path class="cls-1" d="M139,134,122.09,54.37a13.48,13.48,0,0,0-13.2-10.56h-2a32.4,32.4,0,0,0,1.78-10.63C108.72,14.88,93.58,0,75,0S41.23,14.88,41.23,33.18A32.4,32.4,0,0,0,43,43.81h-2a13.49,13.49,0,0,0-13.2,10.56L11,134a12.83,12.83,0,0,0-.29,2.7A13.4,13.4,0,0,0,24.18,150H125.77a13.61,13.61,0,0,0,11.28-6A12.9,12.9,0,0,0,139,134ZM56.48,51.56a5.21,5.21,0,0,0-.35-5.48A22.15,22.15,0,0,1,52,33.18a23,23,0,0,1,45.93,0,22.15,22.15,0,0,1-4.12,12.9,5.21,5.21,0,0,0-.35,5.48,5.38,5.38,0,0,0,4.78,2.85h10.64a2.73,2.73,0,0,1,2.66,2.12l16.88,79.66a2.67,2.67,0,0,1-2.08,3.15,2.86,2.86,0,0,1-.58.06H24.18a2.68,2.68,0,0,1-2.71-2.66,2.39,2.39,0,0,1,.05-.55L38.4,56.54a2.72,2.72,0,0,1,2.65-2.13H51.7A5.38,5.38,0,0,0,56.48,51.56Z"/></g></svg>