<svg xmlns="http://www.w3.org/2000/svg" viewBox="0 0 150 150"><defs><style>.cls-1{fill:#b3b3b3;}</style></defs><title>09</title><g id="_09" data-name="09"><path class="cls-1" d="M118.24,2a4.69,4.69,0,0,0-4.5,4.87,4.61,4.61,0,0,0,.67,2.22l1.53,2.67L34.83,58.61A4.68,4.68,0,0,0,33.1,65l2,3.52L11,82.49,8.79,78.7A4.7,4.7,0,0,0,0,81.19,4.78,4.78,0,0,0,.66,83.4l4.52,7.81,10.2,17.65,4.51,7.81a4.68,4.68,0,0,0,8.47-4A4.6,4.6,0,0,0,28,112l-2.17-3.77,24.2-14,2,3.54a4.69,4.69,0,0,0,6.39,1.7l14.39-8.31A16.79,16.79,0,0,0,81,96.49v10L63.73,141a4.69,4.69,0,1,0,8.2,4.54,3.78,3.78,0,0,0,.17-.35l13.57-27,13.52,27a4.69,4.69,0,1,0,8.61-3.7c-.07-.16-.16-.33-.25-.49L90.33,106.5v-10A16.88,16.88,0,0,0,102.5,80.4a16.57,16.57,0,0,0-1.08-5.73l38.15-22,1.53,2.65a4.68,4.68,0,1,0,8.43-4.08,5,5,0,0,0-.34-.59l-3.67-6.37c-.07-.12-.13-.25-.21-.37L126.4,11.12a4.4,4.4,0,0,0-.26-.39v0l-3.64-6.29A4.69,4.69,0,0,0,118.24,2Zm2.39,17.88,14.24,24.7-39,22.53a16.62,16.62,0,0,0-10.12-3.57h-.1a16.06,16.06,0,0,0-3.35.35,16.82,16.82,0,0,0-8.53,4.62,17,17,0,0,0-3.63,5.37,16.62,16.62,0,0,0-1.34,6.54A17.3,17.3,0,0,0,69,82.58L57.82,89.05,43.58,64.39Zm-35,53,.25,0a8.24,8.24,0,0,1,1.4.17l.34.1a7,7,0,0,1,1.19.42,3.65,3.65,0,0,1,.34.18,7.67,7.67,0,0,1,1.08.7l.24.19a7.49,7.49,0,1,1-11.66,8.79c0-.1-.06-.2-.1-.3a7.21,7.21,0,0,1-.41-1.37,7.28,7.28,0,0,1-.14-1.39v0a7.31,7.31,0,0,1,.15-1.49,6.94,6.94,0,0,1,.31-1c0-.14.07-.29.13-.43a7.1,7.1,0,0,1,.66-1.25v0a7.27,7.27,0,0,1,.71-.85c.07-.07.12-.16.19-.24h0a7.82,7.82,0,0,1,5.3-2.17ZM39.82,76.65l5.48,9.5-24.18,14L15.65,90.6Z"/></g></svg>