<svg xmlns="http://www.w3.org/2000/svg" viewBox="0 0 150 150"><defs><style>.cls-1{fill:#b3b3b3;}</style></defs><title>10</title><g id="_10" data-name="10"><path class="cls-1" d="M98.46.43A65.44,65.44,0,0,0,26.05,72.91,4.34,4.34,0,0,0,31,76.6a4.38,4.38,0,0,0,3.71-4.73,56.78,56.78,0,0,1,50-62.82,57.07,57.07,0,0,1,12.8,0l1.29.15.28-.28A4.47,4.47,0,0,0,100.73,8l.26-.24A4.33,4.33,0,0,0,98.46.43Z"/><path class="cls-1" d="M60.42,34.59l-.2.2A48.22,48.22,0,0,0,46.33,74.64a4.36,4.36,0,0,0,4.82,3.8,4.3,4.3,0,0,0,2.55-1.23c.12-.12.23-.25.34-.38a4.29,4.29,0,0,0,.9-3.19A40.07,40.07,0,0,1,90.1,29.32a40.67,40.67,0,0,1,9.16,0,4.33,4.33,0,0,0,1-8.61A48.26,48.26,0,0,0,60.42,34.59Z"/><path class="cls-1" d="M78,47.2A32,32,0,0,0,66,68.72a32.44,32.44,0,0,0,0,7.37,4.34,4.34,0,0,0,8.63-1,23.51,23.51,0,0,1,20.64-26,23.22,23.22,0,0,1,5.4,0,4.29,4.29,0,0,0,3.56-1.25,4.24,4.24,0,0,0,1.17-2.11l.11-.61a4.34,4.34,0,0,0-3.86-4.64A31.93,31.93,0,0,0,78,47.2Z"/><path class="cls-1" d="M103.75,62A18.71,18.71,0,0,0,87.08,82.52a18.78,18.78,0,0,0,14.26,16.27v46.88a4.34,4.34,0,0,0,8.67,0V98.79A18.7,18.7,0,0,0,103.75,62Zm12,18.6a10,10,0,1,1-10-10A10,10,0,0,1,115.7,80.6Z"/></g></svg>