<svg xmlns="http://www.w3.org/2000/svg" viewBox="0 0 150 150"><defs><style>.cls-1{fill:#b3b3b3;}</style></defs><title>11</title><g id="_11" data-name="11"><path class="cls-1" d="M27.14,13.39a1.58,1.58,0,0,1-1-2.83c.88-.67,1.38-1,1.38-1a1.58,1.58,0,0,1,1.72,2.66,14,14,0,0,0-1.18.84A1.55,1.55,0,0,1,27.14,13.39Z"/><path class="cls-1" d="M95.63,140.69H94.29a1.58,1.58,0,0,1,0-3.16h0c1,0,2.06,0,3,0A1.56,1.56,0,0,1,99,139.05a1.58,1.58,0,0,1-1.55,1.62Zm-9.1-.44h-.15c-1-.1-2.09-.21-3.15-.34a1.58,1.58,0,1,1,.38-3.13c1,.12,2,.23,3.06.32a1.58,1.58,0,0,1-.14,3.15Zm18.67-.14A1.58,1.58,0,0,1,105,137c1-.11,2.07-.23,3.07-.36a1.58,1.58,0,0,1,.39,3.14q-1.53.19-3.12.36Zm-29.49-1.35a1.43,1.43,0,0,1-.29,0l-3.1-.6A1.58,1.58,0,0,1,73,135c1,.21,2,.41,3,.59a1.58,1.58,0,0,1-.28,3.14Zm40.29-.15a1.58,1.58,0,0,1-.26-3.13c1-.18,2.05-.37,3-.56a1.58,1.58,0,0,1,.59,3.1c-1,.2-2,.39-3.1.57Zm10.68-2.24a1.58,1.58,0,0,1-.38-3.11c1-.26,2-.52,3-.79a1.58,1.58,0,0,1,.85,3c-1,.27-2,.55-3.05.81A1.31,1.31,0,0,1,126.68,136.37Zm-61.62,0a1.4,1.4,0,0,1-.41,0c-1-.27-2-.56-3-.86a1.57,1.57,0,0,1-1.07-2,1.59,1.59,0,0,1,2-1.07c1,.3,2,.57,3,.84a1.58,1.58,0,0,1-.41,3.1Zm72.05-3.16a1.59,1.59,0,0,1-1.48-1,1.57,1.57,0,0,1,.94-2q1.55-.57,2.85-1.11a1.58,1.58,0,1,1,1.2,2.92c-.91.38-1.9.76-3,1.15A1.52,1.52,0,0,1,137.11,133.19Zm-82.47-.1a1.7,1.7,0,0,1-.54-.09l-3-1.11A1.58,1.58,0,1,1,52.29,129c1,.37,1.92.73,2.88,1.08a1.58,1.58,0,0,1-.53,3.06ZM44.53,129a1.57,1.57,0,0,1-.66-.14c-1-.45-1.91-.9-2.85-1.37a1.58,1.58,0,1,1,1.41-2.83c.91.46,1.84.9,2.77,1.33A1.59,1.59,0,0,1,46,128,1.58,1.58,0,0,1,44.53,129Zm-9.66-5.06a1.66,1.66,0,0,1-.8-.22c-.91-.54-1.81-1.09-2.7-1.66a1.58,1.58,0,0,1,1.7-2.66c.86.54,1.73,1.08,2.61,1.6a1.58,1.58,0,0,1-.81,2.94Zm-9-6.09a1.59,1.59,0,0,1-1-.33c-.84-.65-1.67-1.31-2.48-2a1.58,1.58,0,1,1,2-2.43c.78.65,1.58,1.28,2.39,1.9a1.58,1.58,0,0,1-1,2.84Zm-8.16-7.23a1.6,1.6,0,0,1-1.14-.47c-.74-.77-1.46-1.55-2.17-2.34a1.58,1.58,0,0,1,2.37-2.1c.67.76,1.36,1.5,2.07,2.23a1.59,1.59,0,0,1,0,2.24A1.62,1.62,0,0,1,17.67,110.57Zm-6.91-8.42a1.58,1.58,0,0,1-1.31-.69c-.6-.88-1.18-1.77-1.73-2.69a1.58,1.58,0,0,1,2.71-1.63c.52.86,1.06,1.71,1.63,2.55a1.57,1.57,0,0,1-1.3,2.46ZM5.55,92.6a1.59,1.59,0,0,1-1.46-1c-.41-1-.79-2-1.14-3a1.58,1.58,0,0,1,3-1Q6.43,89,7,90.42a1.57,1.57,0,0,1-.85,2.06A1.62,1.62,0,0,1,5.55,92.6ZM2.45,82.18A1.57,1.57,0,0,1,.9,80.89c-.2-1-.36-2.1-.49-3.17a1.58,1.58,0,1,1,3.13-.38c.13,1,.28,2,.46,3a1.58,1.58,0,0,1-1.26,1.84A1.46,1.46,0,0,1,2.45,82.18ZM1.58,71.35h0A1.58,1.58,0,0,1,0,69.75c0-1.07,0-2.13.08-3.17a1.57,1.57,0,0,1,1.65-1.51,1.58,1.58,0,0,1,1.51,1.65c0,1-.07,2-.08,3.06A1.59,1.59,0,0,1,1.58,71.35Zm.74-10.88h-.2A1.58,1.58,0,0,1,.75,58.69c.14-1.07.29-2.11.46-3.14a1.58,1.58,0,0,1,3.12.51c-.17,1-.31,2-.45,3A1.57,1.57,0,0,1,2.32,60.47Zm2.07-10.7a1.34,1.34,0,0,1-.4-.06,1.57,1.57,0,0,1-1.13-1.92q.4-1.57.87-3.06a1.56,1.56,0,0,1,2-1,1.58,1.58,0,0,1,1,2q-.44,1.44-.84,2.94A1.57,1.57,0,0,1,4.39,49.77Zm3.5-10.33a1.67,1.67,0,0,1-.62-.12,1.58,1.58,0,0,1-.84-2.07c.42-1,.86-2,1.3-2.91a1.58,1.58,0,0,1,2.86,1.35c-.43.9-.84,1.83-1.25,2.79A1.57,1.57,0,0,1,7.89,39.44Zm5-9.7a1.57,1.57,0,0,1-1.35-2.4c.58-.94,1.15-1.83,1.73-2.68a1.58,1.58,0,0,1,2.62,1.77c-.56.81-1.11,1.67-1.65,2.56A1.6,1.6,0,0,1,12.86,29.74Zm6.42-8.81a1.57,1.57,0,0,1-1.19-2.61c.74-.85,1.46-1.64,2.15-2.37a1.58,1.58,0,1,1,2.28,2.19c-.65.68-1.34,1.43-2,2.25A1.57,1.57,0,0,1,19.28,20.93Z"/><path class="cls-1" d="M147.11,128.6a1.58,1.58,0,0,1-.82-2.94c.77-.46,1.15-.74,1.19-.76a1.58,1.58,0,0,1,1.89,2.52,15.37,15.37,0,0,1-1.45,1A1.63,1.63,0,0,1,147.11,128.6Z"/><path class="cls-1" d="M60.53,58.85a1.17,1.17,0,0,0,1,1.1c6.15.66,9.55-6,11-9.67C78.88,59.18,89.31,60,90.19,60a8.76,8.76,0,0,0,1.21.11c3.19,0,11.65-1.1,15.28-11.86a.76.76,0,0,0,0-.66c0-.11-3.3-11.87-16.38-11.87h-.11c-.44,0-11.2.55-17.8,9.67C71,41.71,67.56,35,61.41,35.67a1.17,1.17,0,0,0-1,1.1c0,.33-.11,7.47,3.18,11.1C60.53,51.38,60.53,58.52,60.53,58.85ZM90.3,37.76h0a14.33,14.33,0,0,1,14.18,10c-4,11.31-13.63,10.1-14.07,10H90.3c-.11,0-11.09-.54-16.92-10C79.21,38.31,90.19,37.76,90.3,37.76ZM66,48.63a1,1,0,0,0,.44-.87,1,1,0,0,0-.44-.88c-2.42-1.76-3.19-6.49-3.3-9.12,5.06.44,7.81,8.35,8.24,10-.43,1.64-3.18,9.55-8.24,10C62.94,55.12,63.6,50.39,66,48.63Z"/><ellipse class="cls-1" cx="98.54" cy="45.34" rx="1.1" ry="1.21"/><path class="cls-1" d="M40.42,94.12c6.37,8.9,16.81,9.67,17.69,9.67a8.76,8.76,0,0,0,1.21.11C62.5,103.9,71,102.8,74.59,92a.7.7,0,0,0,0-.66c0-.11-3.3-11.87-16.37-11.87h-.11c-.44,0-11.21.55-17.8,9.67-1.43-3.63-4.84-10.33-11-9.67a1.17,1.17,0,0,0-1,1.1c.11.22,0,7.36,3.3,11-3.3,3.62-3.19,10.76-3.19,11.09a1.17,1.17,0,0,0,1,1.1C35.58,104.45,39,97.75,40.42,94.12ZM58.22,81.6h0a14.32,14.32,0,0,1,14.17,10c-4,11.31-13.62,10.11-14.06,10h-.11c-.11,0-11.1-.55-16.92-10C47.12,82.15,58.11,81.6,58.22,81.6ZM33.94,92.48a1.1,1.1,0,0,0,0-1.76c-2.42-1.76-3.19-6.49-3.3-9.12,5,.44,7.8,8.35,8.24,10-.44,1.64-3.19,9.56-8.24,10C30.75,99,31.52,94.23,33.94,92.48Z"/><ellipse class="cls-1" cx="66.35" cy="89.18" rx="1.1" ry="1.21"/><path class="cls-1" d="M47.56,74.9a1.17,1.17,0,0,0,1,1.09c3,.33,4.72-2.3,5.71-4.28A12.87,12.87,0,0,0,62.94,76h.77c2.42,0,6.38-1.31,8-6.37a.7.7,0,0,0,0-.66,8.87,8.87,0,0,0-8.68-6.37h0a12.71,12.71,0,0,0-8.68,4.28c-.88-2-2.74-4.61-5.71-4.28a1.17,1.17,0,0,0-1,1.1c0,.44,0,3.62,1.43,5.6A10.27,10.27,0,0,0,47.56,74.9Zm15.49-10h0a6.65,6.65,0,0,1,6.49,4.39c-1.87,5.06-6.16,4.51-6.38,4.51h-.11a10.62,10.62,0,0,1-7.8-4.4A10.21,10.21,0,0,1,63.05,64.9ZM51.19,68.52c-.88-.66-1.21-2.2-1.32-3.4,1.65.77,2.64,3.4,3,4.28-.32.88-1.31,3.52-3,4.29a5.61,5.61,0,0,1,1.32-3.41,1,1,0,0,0,.44-.88C51.63,69.07,51.52,68.63,51.19,68.52Z"/><ellipse class="cls-1" cx="67.12" cy="68.08" rx="0.55" ry="0.66"/><path class="cls-1" d="M62.5,118.19a1.17,1.17,0,0,0,1,1.1c3,.33,4.73-2.31,5.72-4.29a12.83,12.83,0,0,0,8.68,4.29h.77c2.41,0,6.37-1.32,8-6.38a.7.7,0,0,0,0-.66A8.89,8.89,0,0,0,78,105.88h0a12.68,12.68,0,0,0-8.68,4.29c-.88-2-2.75-4.62-5.72-4.29a1.17,1.17,0,0,0-1,1.1c0,.44,0,3.63,1.43,5.6C62.5,114.56,62.5,117.75,62.5,118.19ZM78,108.08h0a6.65,6.65,0,0,1,6.48,4.39c-1.87,5.06-6.15,4.51-6.37,4.51H78a10.29,10.29,0,0,1-7.8-4.4C72.94,108.41,77.78,108.19,78,108.08ZM66.24,111.7c-.88-.65-1.21-2.19-1.32-3.4,1.65.77,2.64,3.4,3,4.28-.33.88-1.32,3.52-3,4.29a5.61,5.61,0,0,1,1.32-3.41,1,1,0,0,0,.44-.88A1.36,1.36,0,0,0,66.24,111.7Z"/><ellipse class="cls-1" cx="82.06" cy="111.37" rx="0.55" ry="0.66"/><path class="cls-1" d="M95.69,68.63c-1.1-2.52-3.3-6.15-7.14-5.82a1.17,1.17,0,0,0-1,1.1c0,.55,0,4.72,2,7.14-2,2.42-2,6.59-2,7.14a1.17,1.17,0,0,0,1,1.1c3.84.44,6.15-3.3,7.14-5.82a16.05,16.05,0,0,0,11.2,5.71h.77c2.2,0,7.81-.77,10.22-7.91a.7.7,0,0,0,0-.66A11.14,11.14,0,0,0,107,62.7h0C106.68,62.81,100,63.14,95.69,68.63ZM89.75,77c.11-1.65.66-4.06,1.87-5a1.1,1.1,0,0,0,0-1.76c-1.32-1-1.76-3.41-1.87-5,2.64.66,4.07,4.83,4.51,5.93C93.93,72.15,92.39,76.21,89.75,77ZM107,65h0a8.85,8.85,0,0,1,8.69,6c-2.42,6.81-8.25,6-8.58,6H107a13.8,13.8,0,0,1-10.32-6C100.3,65.34,107,65,107,65Z"/><circle class="cls-1" cx="112.28" cy="69.4" r="0.77"/><path class="cls-1" d="M77.12,95.66a1.17,1.17,0,0,0,1,1.1c3.84.44,6.15-3.3,7.14-5.82a15.72,15.72,0,0,0,11.21,5.82h.77c2.19,0,7.8-.77,10.21-7.91a.7.7,0,0,0,0-.66,11.13,11.13,0,0,0-10.87-7.91h0A16.26,16.26,0,0,0,85.25,86.1c-1.1-2.52-3.3-6.26-7.14-5.82a1.17,1.17,0,0,0-1,1.1c0,.55,0,4.72,2,7.14C77.12,90.94,77.12,95.11,77.12,95.66ZM96.57,82.48h0a8.85,8.85,0,0,1,8.68,6c-2.42,6.81-8.24,6-8.57,6h-.11a13.81,13.81,0,0,1-10.33-6C89.86,82.81,96.57,82.48,96.57,82.48Zm-12.75,6c-.33,1.1-1.87,5.27-4.5,5.93.11-1.64.65-4.06,1.86-5a1.1,1.1,0,0,0,0-1.76c-1.32-1-1.75-3.41-1.86-5C82,83.25,83.49,87.42,83.82,88.52Z"/><circle class="cls-1" cx="101.84" cy="86.98" r="0.77"/></g></svg>