<svg xmlns="http://www.w3.org/2000/svg" viewBox="0 0 150 150"><defs><style>.cls-1{fill:#b3b3b3;}</style></defs><title>12</title><g id="_12" data-name="12"><path class="cls-1" d="M121.69,39.3a66,66,0,0,0-10.75-8.55,85.24,85.24,0,0,1-8.17-11.08C96.45,10,89.92,0,75,0S53.55,10,47.24,19.67a84.2,84.2,0,0,1-8.16,11,67.21,67.21,0,0,0-10.77,8.57,64.1,64.1,0,0,0,0,91.71,66.87,66.87,0,0,0,93.38,0A64.08,64.08,0,0,0,121.69,39.3ZM90.32,56.53a33.41,33.41,0,0,0-30.64,0L45.09,35.2a60,60,0,0,1,59.82,0Zm10.57,28.62a25,25,0,0,1-7.58,18,26.23,26.23,0,0,1-36.62,0,25.11,25.11,0,0,1,0-36,26.23,26.23,0,0,1,36.62,0A25,25,0,0,1,100.89,85.15ZM53.16,23.4C59.18,14.19,63.93,6.91,75,6.91s15.82,7.28,21.84,16.5l.44.66a67.69,67.69,0,0,0-44.55,0Zm-29,91.11a57.6,57.6,0,0,1,0-58.73L45.86,70.1a31.78,31.78,0,0,0,0,30.1ZM75,143.09a59.65,59.65,0,0,1-29.92-8l14.6-21.33a34,34,0,0,0,30.65,0l14.58,21.33A59.58,59.58,0,0,1,75,143.09Zm29.14-42.89a31.7,31.7,0,0,0,0-30.1l21.7-14.31a57.6,57.6,0,0,1,0,58.73Z"/></g></svg>