<svg xmlns="http://www.w3.org/2000/svg" viewBox="0 0 150 150"><defs><style>.cls-1{fill:#b3b3b3;}</style></defs><title>13</title><g id="_13" data-name="13"><path class="cls-1" d="M127.17,78.65a3.27,3.27,0,0,1-3-2,3.4,3.4,0,0,1,1.65-4.43c11.21-5.14,17.64-11.45,17.64-17.33,0-9.57-51-26.78-68.48-26.78-16.62,0-68.48,17.39-68.48,26.78C6.52,60.7,13,67,24.2,72.15a3.39,3.39,0,0,1,1.63,4.43,3.21,3.21,0,0,1-4.31,1.68C7.64,71.87,0,63.58,0,54.91,0,37.29,61.19,21.43,75,21.43s75,15.86,75,33.48c0,8.77-7.64,17.1-21.5,23.45A3.13,3.13,0,0,1,127.17,78.65Z"/><path class="cls-1" d="M81.86,95.1H72.4C40.76,95,22.93,93.75,19.83,86.37A3.5,3.5,0,0,1,19.57,85V75a3.32,3.32,0,0,1,2.83-3.31A431.51,431.51,0,0,1,75,68.3a425.77,425.77,0,0,1,52.61,3.39A3.31,3.31,0,0,1,130.43,75V85a3.38,3.38,0,0,1-.29,1.38C127,93.64,111.35,95.1,81.86,95.1ZM75,88.39h3.92c10.25,0,40.94.13,45-4.33V78A432.54,432.54,0,0,0,75,75a433.85,433.85,0,0,0-48.91,3v6.09c4.23,4.39,35.68,4.35,46.31,4.34ZM127.17,85h0Z"/><path class="cls-1" d="M75,128.57c-27.87,0-44.8-4.84-51.77-14.8-6-8.54-2.81-18.22-1.1-23.42a19.77,19.77,0,0,0,.74-2.53,3.25,3.25,0,0,1,3.77-2.73A3.36,3.36,0,0,1,29.3,89a26.11,26.11,0,0,1-1,3.53c-1.51,4.62-3.8,11.62.22,17.37,3.83,5.48,15,12,46.48,12s42.65-6.51,46.49-11.95c4-5.7,1.73-12.7.23-17.33a26.49,26.49,0,0,1-1-3.66,3.33,3.33,0,0,1,2.68-3.85,3.27,3.27,0,0,1,3.75,2.75,23.23,23.23,0,0,0,.77,2.66c1.69,5.19,4.82,14.87-1.13,23.35C119.81,123.75,102.87,128.57,75,128.57Z"/><path class="cls-1" d="M75,61.61a3.31,3.31,0,0,1-3.26-3.35V38.17a3.26,3.26,0,1,1,6.52,0V58.26A3.31,3.31,0,0,1,75,61.61Z"/><path class="cls-1" d="M75,61.61c-9.29,0-16.3-4.32-16.3-10a3.26,3.26,0,1,1,6.52,0c0,.83,3.47,3.35,9.78,3.35s9.78-2.52,9.78-3.35a3.26,3.26,0,1,1,6.52,0C91.3,57.29,84.29,61.61,75,61.61Z"/><path class="cls-1" d="M78.26,44.87H71.74a3.35,3.35,0,0,1,0-6.7h6.52a3.35,3.35,0,0,1,0,6.7Z"/></g></svg>