<svg xmlns="http://www.w3.org/2000/svg" viewBox="0 0 150 150"><defs><style>.cls-1{fill:#b3b3b3;}</style></defs><title>14</title><g id="_14" data-name="14"><path class="cls-1" d="M149.14,107.57a3.12,3.12,0,0,0-2.19-.91c-8.61,0-15.18-2-19.54-6.1a17.82,17.82,0,0,1-5.51-13.43c0-8.17,6-14.65,15-16.13a3,3,0,0,0,2-1.23,3,3,0,0,0-.65-4.13c-9.11-6.75-21.38-7.51-26.18-7.51H112a2.81,2.81,0,0,0-.58,0,3,3,0,0,0-2.05,1.09,2.94,2.94,0,0,0-.68,2.2,3,3,0,0,0,3.18,2.72A45.18,45.18,0,0,1,129,67.53c-8.1,3.78-13.19,11.22-13.19,19.6a23.89,23.89,0,0,0,7.42,17.78c5.46,5.08,13.65,7.76,23.66,7.76h0a3,3,0,0,0,3-3A3,3,0,0,0,149.14,107.57Z"/><path class="cls-1" d="M99.23,61.7a3,3,0,0,0-1.57.54c-6.76,4.52-11,11.9-15,19.79C73,79.56,67.5,73.24,67.5,64.6c0-7.25,6.38-15.72,18.6-17.88A3,3,0,0,0,88,45.44a3,3,0,0,0,.45-2.24A3,3,0,0,0,86.64,41c-9.2-3.53-18.08-5.4-25.68-5.4-8.09,0-15,2.21-20.42,6.56-4.39,3.5-8,8.38-11.31,15.33l-.41.74c-1,2.21-1.93,4.37-2.82,6.45-2.32,5.41-4.31,10.08-6.92,13.64-3.95,5.4-8.6,7.61-16,7.61H3a3,3,0,0,0-3,3A3,3,0,0,0,.86,91a3.08,3.08,0,0,0,2.19.91c9.07,0,15.9-3.31,20.88-10.11,3.2-4.38,5.48-9.68,7.9-15.29.81-1.9,1.65-3.84,2.52-5.75l.19-.41v0c2.88-6.09,6.1-10.51,9.83-13.48C48.86,43.27,54.13,41.6,61,41.6a59,59,0,0,1,15.11,2.46c-9,4.38-14.62,12.16-14.62,20.54,0,8.53,4.9,18.86,18.52,22.91-.6,1.18-1.2,2.33-1.81,3.46-3.19,5.92-6,9.77-9.1,12.49a19.17,19.17,0,0,1-13.35,4.94h0a3,3,0,0,0-3,3,3,3,0,0,0,.86,2.14,3,3,0,0,0,2.19.91A25.67,25.67,0,0,0,73.1,108c4.57-4,7.81-9.41,10.37-14.17,1.11-2.07,2.19-4.18,3.25-6.28C91,79.18,94.94,71.3,101,67.25a3,3,0,0,0,1.34-1.89,2.94,2.94,0,0,0-.4-2.27A3,3,0,0,0,99.23,61.7Z"/></g></svg>