<?xml version="1.0" encoding="utf-8"?>
<!-- Generator: Adobe Illustrator 24.0.2, SVG Export Plug-In . SVG Version: 6.00 Build 0)  -->
<svg version="1.1" id="lod" xmlns="http://www.w3.org/2000/svg" xmlns:xlink="http://www.w3.org/1999/xlink" x="0px" y="0px"
	 viewBox="0 0 290 229" style="enable-background:new 0 0 290 229;" xml:space="preserve">
<style type="text/css">
	.st0{fill:none;stroke:#808080;stroke-width:3;stroke-linecap:round;stroke-linejoin:round;}
	.st1{fill:#4D4D4D;}
	.st2{fill:#FFFFFF;}
	.st3{fill:#808080;}
	.st4{fill:#B3B3B3;}
	.st5{fill:none;stroke:#808080;stroke-width:2;stroke-linecap:round;stroke-linejoin:round;}
</style>
<g id="base">
	<polygon class="st0" points="142.7,134 163.8,134 172.6,147 198.2,147 192.3,161 142.7,161 	"/>
	<rect x="142.7" y="161" class="st0" width="46" height="22"/>
	<rect x="100.7" y="170" class="st0" width="42" height="13"/>
	<polygon class="st1" points="251.3,222.5 284.2,181.5 96.2,181.5 96.2,208.5 116.2,222.5 	"/>
	<circle class="st2" cx="127.2" cy="197.5" r="10"/>
	<circle class="st2" cx="204.2" cy="198.5" r="10"/>
	<circle class="st2" cx="234.2" cy="198.5" r="10"/>
	<rect x="202.2" y="12.5" class="st3" width="4" height="169"/>
	<circle class="st3" cx="204.2" cy="12" r="3.5"/>
</g>
<g id="_00">
	<polygon class="st4" points="208.2,35.5 208.2,145.5 284.2,145.5 	"/>
	<polygon class="st4" points="200.2,38.5 200.2,128.5 120.2,128.5 	"/>
</g>
<g id="_01">
	<path class="st1" d="M127.8,167.5c0.4-0.1,0.8-0.4,0.8-0.9v-1.1c2.2-0.2,4.3-1,5.9-2.5l0.9,0.8c0.2,0.2,0.4,0.3,0.7,0.3
		c0.5-0.1,0.8-0.5,0.8-0.9c0-0.2-0.1-0.4-0.3-0.5l-0.8-0.8c1.4-1.7,2.3-3.8,2.5-5.9h1.3c0.5-0.1,0.8-0.5,0.7-1
		c-0.1-0.4-0.4-0.7-0.8-0.7h-1.3c-0.2-2.2-1-4.3-2.5-5.9l0.8-0.8c0.3-0.3,0.3-0.9,0-1.2s-0.9-0.3-1.2,0l-0.8,0.8
		c-1.7-1.4-3.7-2.3-5.9-2.5v-1.2c0-0.5-0.4-0.9-0.8-0.9c-0.5,0-0.9,0.4-0.9,0.8l0,0v1.1c-2.2,0.2-4.3,1-5.9,2.5l-0.8-0.8
		c-0.3-0.3-0.9-0.3-1.2,0s-0.3,0.9,0,1.2l0.8,0.8c-1.4,1.7-2.3,3.8-2.5,5.9h-1.2c-0.5,0.1-0.8,0.5-0.8,0.9s0.4,0.7,0.8,0.8h1.2
		c0.2,2.2,1,4.3,2.5,5.9l-0.8,0.8c-0.3,0.3-0.3,0.9,0,1.2l0,0c0.2,0.2,0.4,0.3,0.6,0.3c0.2,0,0.4-0.1,0.6-0.3l0.8-0.8
		c1.1,0.9,2.4,1.6,3.7,2c0.4,0.2,0.9,0,1.1-0.5c0.2-0.4,0-0.9-0.5-1.1l0,0h-0.1c-4.7-1.4-7.3-6.3-5.9-11c1.4-4.7,6.3-7.3,11-5.9
		c4.7,1.4,7.3,6.3,5.9,11c-1.1,3.7-4.5,6.2-8.4,6.3c-0.5,0-0.9,0.4-0.9,0.8l0,0v2C126.9,167.1,127.3,167.5,127.8,167.5L127.8,167.5
		h0.1H127.8z M127.7,162.7c4.2,0,7.7-3.4,7.7-7.6c0-4.2-3.4-7.7-7.6-7.7s-7.7,3.4-7.7,7.6l0,0C120.1,159.2,123.5,162.6,127.7,162.7
		L127.7,162.7z M128.6,160.9v-3.5l0.2-0.1l2.5,2.5C130.5,160.4,129.5,160.8,128.6,160.9L128.6,160.9z M126.9,160.9
		c-1-0.1-1.9-0.5-2.7-1.1l2.5-2.5l0.2,0.1V160.9z M132.5,158.6l-2.5-2.5c0-0.1,0.1-0.2,0.1-0.2h3.5
		C133.4,156.8,133.1,157.8,132.5,158.6L132.5,158.6z M122.9,158.6c-0.6-0.8-1-1.7-1.1-2.7h3.5l0.1,0.2L122.9,158.6z M127.7,155.9
		c-0.5,0-0.9-0.4-0.9-0.8s0.4-0.9,0.8-0.9c0.5,0,0.9,0.4,0.9,0.8l0,0C128.5,155.5,128.2,155.8,127.7,155.9L127.7,155.9z
		 M133.6,154.1h-3.5c0-0.1-0.1-0.2-0.1-0.2l2.5-2.5C133.1,152.2,133.4,153.2,133.6,154.1L133.6,154.1z M125.3,154.1h-3.5
		c0.1-1,0.5-1.9,1.1-2.7l2.5,2.5L125.3,154.1z M128.8,152.7l-0.3-0.1v-3.5c1,0.1,1.9,0.5,2.7,1.1L128.8,152.7z M126.6,152.7
		l-2.5-2.5c0.8-0.6,1.7-1,2.7-1.1v3.5L126.6,152.7z"/>
</g>
<g id="_02">
	<path class="st1" d="M230.3,191.5c-0.9,0-1.6,0.7-1.6,1.6V204c0,0.9,0.7,1.6,1.6,1.6h8.9c0.3,0,0.5-0.2,0.5-0.5l0,0V192
		c0-0.3-0.2-0.5-0.4-0.5l0,0H230.3z M230.3,192.4h8.4v12.1h-7.5v-10h6.7c0.3,0,0.5-0.2,0.5-0.5s-0.2-0.5-0.5-0.5h-7.6
		c-0.3,0-0.6-0.3-0.6-0.6l0,0C229.6,192.7,229.9,192.4,230.3,192.4L230.3,192.4z M229.7,194.4c0.2,0.1,0.4,0.1,0.6,0.1v10
		c-0.3,0-0.6-0.3-0.6-0.6l0,0V194.4z M232.4,195.5c-0.3,0-0.5,0.2-0.5,0.5s0.2,0.5,0.5,0.5l0,0h5c0.3,0,0.5-0.2,0.5-0.5
		s-0.2-0.5-0.5-0.5H232.4L232.4,195.5z M233.2,197c-0.3,0-0.4,0.3-0.4,0.5s0.2,0.4,0.4,0.4h3.4c0.2,0,0.5-0.2,0.5-0.4l0,0
		c0-0.3-0.2-0.5-0.4-0.5l0,0H233.2L233.2,197z"/>
</g>
<g id="_03">
	<path class="st1" d="M202.7,191.5c-0.1,0-0.1,0-0.2,0c-2.4,1-3.5,3.8-2.4,6.2c0.4,0.9,1,1.6,1.9,2.1v5.1c0,0.3,0.2,0.5,0.4,0.5l0,0
		h3.6c0.3,0,0.5-0.2,0.4-0.5l0,0V201c0-0.3-0.2-0.5-0.4-0.5c-0.3,0-0.5,0.2-0.5,0.5l0,0l0,0v3.4h-2.7v-4.9c0-0.2-0.1-0.3-0.3-0.4
		c-1.8-1-2.5-3.3-1.6-5.1c0.3-0.5,0.7-1,1.2-1.3v3.4c0,0.3,0.2,0.5,0.4,0.5h3c0.3,0,0.5-0.2,0.4-0.5v-3.4c1.7,1.2,2.2,3.5,1,5.3
		c-0.3,0.5-0.8,0.9-1.3,1.2c-0.2,0.1-0.3,0.4-0.2,0.6c0.1,0.2,0.4,0.3,0.6,0.2l0,0c1.5-0.8,2.5-2.4,2.5-4.2c0-1.9-1.1-3.6-2.8-4.3
		c-0.2-0.1-0.5,0-0.6,0.3c0,0.1,0,0.1,0,0.2v3.7h-1.9V192C203.2,191.7,203,191.5,202.7,191.5C202.8,191.5,202.8,191.5,202.7,191.5
		L202.7,191.5z"/>
</g>
<g id="_04">
	<path class="st1" d="M200.3,15.5c-0.5,0-0.8,0.4-0.8,0.9V17H177c-0.5,0-0.8,0.4-0.8,0.9c0,0.2,0.1,0.4,0.2,0.6l6.2,7.1l-6.2,7.1
		c-0.3,0.4-0.3,0.9,0.1,1.2c0.2,0.1,0.4,0.2,0.6,0.2h21.1c0.5-0.1,0.8-0.5,0.8-0.9s-0.4-0.7-0.8-0.8h-19.3l3.3-3.9h17.3v6.1
		c-0.1,0.5,0.3,0.9,0.7,0.9c0.5,0.1,0.9-0.3,0.9-0.7c0-0.1,0-0.1,0-0.2V16.3C201.1,15.9,200.8,15.5,200.3,15.5z M182.2,22.5
		l-3.3-3.8h20.6v3.8H182.2z"/>
</g>
<g id="_05">
	<path class="st1" d="M156.2,137.5c-5.5,0-10,4.5-10,10s4.5,10,10,10c4.8,0,8.9-3.4,9.8-8.1c0.1-0.4-0.2-0.7-0.5-0.8
		c-0.4-0.1-0.7,0.2-0.8,0.5l0,0c-0.7,3.8-4,6.7-7.8,7V155c0-0.4-0.3-0.7-0.7-0.7l0,0l0,0c-0.4,0-0.7,0.3-0.7,0.7l0,0l0,0v1.1
		c-4.3-0.3-7.7-3.7-8-8h1.1c0.4,0,0.7-0.3,0.7-0.7s-0.3-0.7-0.7-0.7l0,0h-1.1c0.3-4.3,3.7-7.7,8-8v1.1c0,0.4,0.3,0.7,0.7,0.7
		s0.7-0.3,0.7-0.7l0,0v-1.1c4.3,0.3,7.6,3.7,7.9,8h-1c-0.4,0-0.7,0.3-0.7,0.7s0.3,0.7,0.7,0.7l0,0h1.8c0.3,0,0.6-0.3,0.6-0.6
		C166.2,142,161.7,137.5,156.2,137.5z M160.8,142.2c-0.1,0-0.2,0-0.3,0.1l-6,3.3c-0.1,0.1-0.2,0.2-0.3,0.3l-3.3,6
		c-0.2,0.3-0.1,0.7,0.3,0.9c0.2,0.1,0.5,0.1,0.7,0l6-3.3c0.1-0.1,0.2-0.2,0.3-0.3l3.3-6c0.2-0.3,0.1-0.7-0.3-0.9
		C161.1,142.2,161,142.2,160.8,142.2z M155,147.3l1.4,1.4l-3.2,1.8L155,147.3z"/>
</g>
<g id="_06">
	<path class="st1" d="M278.7,200.3c-1.6,0-2.8,1.3-2.8,2.8c0,1.2,0.8,2.3,2,2.7v2.4h-4.6c-0.5,0-0.8,0.4-0.8,0.9l0,0
		c0,0.5,0.4,0.8,0.9,0.8l0,0h4.5v13.4c-3.5-0.3-6.4-2.8-7.3-6.2c0.4,0.2,0.9,0,1.1-0.4c0.2-0.3,0.1-0.8-0.2-1l-1.4-1.4
		c-0.3-0.3-0.9-0.3-1.2,0l0,0l-1.4,1.4c-0.4,0.3-0.4,0.8-0.1,1.2s0.8,0.4,1.2,0.1c0,0,0,0,0.1,0l0.1-0.1l0.1-0.1
		c1,5.5,6.3,9.1,11.8,8c4.1-0.8,7.2-4,8-8l0.1,0.1c0.3,0.4,0.8,0.4,1.2,0.1c0.4-0.3,0.4-0.8,0.1-1.2l0,0l-0.1-0.1l-1.4-1.4
		c-0.2-0.2-0.4-0.3-0.7-0.2c-0.2,0-0.4,0.1-0.5,0.2l-1.4,1.4c-0.3,0.3-0.4,0.8,0,1.2c0.2,0.3,0.6,0.3,1,0.2
		c-0.9,3.4-3.8,5.9-7.3,6.2v-17.5c1.5-0.5,2.3-2,1.8-3.5C281,201.1,279.9,200.3,278.7,200.3L278.7,200.3z M278.7,202
		c0.6,0,1.1,0.5,1.1,1.1s-0.5,1.1-1.1,1.1s-1.1-0.5-1.1-1.1l0,0C277.6,202.5,278.1,202,278.7,202L278.7,202z M281.4,208.2
		c-0.5,0-0.8,0.4-0.8,0.9s0.4,0.8,0.9,0.8l0,0h2.5c0.5,0,0.8-0.4,0.8-0.8l0,0c0-0.5-0.4-0.8-0.8-0.9l0,0H281.4L281.4,208.2z"/>
	<path class="st1" d="M277.9,202.5c0.1,0.4,0.5,0.7,0.9,0.6c0.5,0,0.8-0.3,0.8-0.7v-7.7c-0.1-0.4-0.4-0.7-0.8-0.6
		c-0.4,0-0.8,0.2-0.9,0.6V202.5z"/>
	<path class="st1" d="M275.9,196.5c-0.4,0.4-0.4,0.9,0,1.3l0,0c0.4,0.3,1,0.2,1.3-0.2l2-2.1c0.4-0.3,0.4-0.9,0.1-1.3
		c-0.4-0.3-0.9-0.3-1.3,0.1l0,0L275.9,196.5L275.9,196.5z"/>
	<path class="st1" d="M281.5,196.4l-2.1-2.1l0,0c-0.3-0.4-0.9-0.4-1.3-0.1c-0.3,0.4-0.3,0.9,0.1,1.3l2.1,2.1
		c0.3,0.4,0.9,0.5,1.3,0.2C281.9,197.4,281.9,196.8,281.5,196.4C281.6,196.5,281.6,196.5,281.5,196.4L281.5,196.4z"/>
</g>
<g id="_07">
	<path class="st1" d="M96.5,206.8h-4.6c1-1.4,1.5-3.1,1.5-4.8v-0.9l0,0v-3.6c-0.1-1.7-1.6-3-3.3-2.9c-1.6,0.1-2.8,1.3-2.9,2.9v4.4
		c0,0.2,0.1,0.4,0.2,0.5c1.3,1.3,2.1,3,2.1,4.8c-1.5,1.6-2.3,3.7-2.3,5.8v4.5c0.1,1.7,1.6,3,3.3,2.9c1.6-0.1,2.8-1.3,2.9-2.9V214
		l0,0v-0.9c0-0.2-0.1-0.4-0.2-0.6c-1.2-1.1-1.9-2.7-2.1-4.3h5.3c0.4,0,0.7-0.3,0.7-0.7C97.2,207.1,96.9,206.7,96.5,206.8
		C96.5,206.7,96.5,206.7,96.5,206.8L96.5,206.8z M90.3,196c0.9,0,1.6,0.7,1.6,1.6v0.9c-1-0.6-2.2-0.6-3.2,0v-1
		C88.7,196.6,89.4,196,90.3,196z M88.7,201L88.7,201c0.1-0.9,0.8-1.5,1.7-1.5c0.8,0.1,1.4,0.7,1.5,1.5v0.9c0,1.3-0.3,2.6-1,3.7
		c-0.3-1.5-1.1-2.9-2.1-4L88.7,201z M90.3,219c-0.9,0-1.6-0.7-1.6-1.6l0,0v-0.9c0.5,0.3,1,0.4,1.6,0.4s1.1-0.2,1.6-0.4v0.9
		C91.9,218.3,91.2,219,90.3,219L90.3,219z M91.9,214c-0.1,0.9-0.8,1.5-1.7,1.5c-0.8-0.1-1.4-0.7-1.5-1.5v-0.9c0-1.3,0.3-2.6,1-3.7
		c0.3,1.5,1.1,2.9,2.1,4L91.9,214z"/>
</g>
<g id="_08">
	<path class="st1" d="M125,198.9c0.1,0.1,0.2,0.1,0.4,0c1.2-0.5,2.6-0.5,3.8,0h0.1c0.1,0,0.1,0,0.2,0c0.1-0.1,0.2-0.2,0.2-0.3
		c0.1-0.3,0-0.5-0.3-0.6c-1.4-0.5-3-0.5-4.4,0c-0.2,0.1-0.4,0.4-0.3,0.6C124.8,198.7,124.8,198.8,125,198.9z"/>
	<path class="st1" d="M123.2,201.6c0,0.3,0.2,0.5,0.5,0.5l0,0h7.1c0.3,0,0.5-0.2,0.5-0.5l0,0c0-0.3-0.2-0.5-0.5-0.5l0,0h-7.1
		C123.4,201.1,123.2,201.3,123.2,201.6L123.2,201.6z"/>
	<path class="st1" d="M127.2,195c0.8,0,1.5-0.7,1.5-1.5s-0.7-1.5-1.5-1.5s-1.5,0.7-1.5,1.5S126.4,195,127.2,195z M126.6,193.5
		c0-0.3,0.3-0.6,0.6-0.6s0.6,0.3,0.6,0.6s-0.3,0.6-0.6,0.6S126.6,193.9,126.6,193.5L126.6,193.5L126.6,193.5z"/>
	<path class="st1" d="M124.7,197.1c0,0.1,0.1,0.2,0.2,0.3c0.1,0,0.2,0,0.4,0c1.2-0.5,2.6-0.5,3.8,0h0.1c0.1,0,0.1,0,0.2-0.1
		c0.1-0.1,0.2-0.2,0.2-0.3c0.1-0.3,0-0.5-0.3-0.6c-1.4-0.5-3-0.5-4.4,0C124.7,196.5,124.6,196.8,124.7,197.1L124.7,197.1z"/>
	<path class="st1" d="M133.2,202.9l-1.6-7.4c-0.1-0.6-0.6-1-1.2-1h-0.2c0.1-0.3,0.2-0.7,0.2-1c0-1.7-1.4-3.1-3.2-3.1
		c-1.7,0-3.1,1.4-3.1,3.1c0,0.3,0.1,0.7,0.2,1h-0.2c-0.6,0-1.1,0.4-1.2,1l-1.6,7.4c0,0.1,0,0.2,0,0.3c0,0.7,0.6,1.2,1.3,1.2h9.5
		c0.1,0,0.2,0,0.3,0c0.3-0.1,0.6-0.3,0.8-0.5C133.2,203.6,133.3,203.2,133.2,202.9z M125.5,195.2c0.1-0.2,0.1-0.4,0-0.5
		c-0.7-1-0.4-2.3,0.5-3c1-0.7,2.3-0.4,3,0.5c0.5,0.7,0.5,1.7,0,2.4c-0.1,0.2-0.1,0.4,0,0.5c0.1,0.2,0.3,0.3,0.4,0.3h1
		c0.1,0,0.2,0.1,0.2,0.2l1.6,7.4c0,0.1-0.1,0.3-0.2,0.3h-9.5c-0.1,0-0.3-0.1-0.3-0.3l0,0l1.6-7.4c0-0.1,0.1-0.2,0.2-0.2h1
		C125.3,195.5,125.4,195.3,125.5,195.2L125.5,195.2z"/>
</g>
<g id="_09">
	<path class="st1" d="M270.7,158.5c-0.4,0-0.7,0.3-0.7,0.7l0,0c0,0.1,0,0.2,0.1,0.3l0.2,0.4l-12.2,7.1c-0.3,0.2-0.5,0.6-0.3,0.9
		c0,0,0,0,0,0.1l0.3,0.5l-3.6,2.1l-0.3-0.6c-0.1-0.2-0.4-0.4-0.6-0.4c-0.4,0-0.7,0.3-0.7,0.7l0,0c0,0.1,0,0.2,0.1,0.3l0.7,1.2
		l1.5,2.6l0.7,1.2c0.2,0.4,0.6,0.5,0.9,0.3s0.5-0.6,0.3-0.9c0,0,0-0.1-0.1-0.1l-0.3-0.6l3.6-2.1l0.3,0.5c0.2,0.3,0.6,0.5,1,0.3l0,0
		l2.2-1.3c0.3,0.4,0.8,0.7,1.2,0.8v1.5l-2.6,5.2c-0.2,0.3-0.1,0.8,0.2,1l0,0c0.3,0.2,0.8,0.1,1-0.2c0,0,0,0,0-0.1c0,0,0,0,0-0.1
		l2-4.1l2,4.1c0.1,0.4,0.6,0.5,0.9,0.4l0,0c0.4-0.1,0.5-0.5,0.4-0.9l0,0v-0.1l-2.6-5.2v-1.5c1.1-0.3,1.8-1.3,1.8-2.4
		c0-0.3-0.1-0.6-0.2-0.8l5.8-3.3l0.2,0.4c0.2,0.3,0.6,0.5,0.9,0.3l0,0c0.3-0.2,0.5-0.6,0.3-0.9l0,0v-0.1l-0.6-1v-0.1l-2.9-4.9v-0.1
		l0,0l-0.5-0.9C271.3,158.6,271,158.5,270.7,158.5z M271.1,161.2l2.1,3.7l-5.9,3.4c-0.4-0.3-1-0.5-1.5-0.5l0,0c-0.2,0-0.3,0-0.5,0
		c-0.8,0.2-1.5,0.7-1.8,1.5c-0.1,0.3-0.2,0.7-0.2,1c0,0.1,0,0.2,0,0.3l-1.7,1l-2.1-3.7L271.1,161.2z M265.8,169.2L265.8,169.2h0.2
		l0,0l0.2,0.1l0,0l0.2,0.1l0,0l0.1,0.1c0.2,0.2,0.3,0.5,0.3,0.7c0,0.6-0.5,1.1-1.1,1.1c-0.4,0-0.9-0.3-1-0.7c0,0,0,0,0-0.1
		s0-0.1-0.1-0.2c0-0.1,0-0.1,0-0.2l0,0c0-0.1,0-0.2,0-0.2c0-0.1,0-0.1,0-0.1s0,0,0-0.1s0.1-0.1,0.1-0.2l0,0l0.1-0.1l0,0l0,0
		c0.1-0.1,0.2-0.1,0.3-0.2c0.2-0.1,0.3-0.1,0.5-0.1L265.8,169.2z M258.9,169.8l0.8,1.4l-3.6,2.1l-0.8-1.4L258.9,169.8z"/>
</g>
<g id="_10">
	<path class="st1" d="M103.9,139.7c-6.7-0.8-12.7,4-13.5,10.6c-0.1,0.9-0.1,1.9,0,2.8c0,0.2,0.1,0.4,0.3,0.5
		c0.2,0.1,0.4,0.2,0.6,0.2c0.4-0.1,0.7-0.5,0.7-0.9c-0.7-5.8,3.5-11,9.3-11.7c0.8-0.1,1.6-0.1,2.4,0h0.2l0.1-0.1
		c0.1,0,0.2-0.1,0.3-0.2v-0.1c0.1-0.1,0.2-0.3,0.2-0.5C104.5,140.1,104.3,139.8,103.9,139.7z"/>
	<path class="st1" d="M96.8,146.1L96.8,146.1c-2,2-2.9,4.7-2.6,7.4c0.1,0.4,0.5,0.8,0.9,0.7c0.2,0,0.3-0.1,0.5-0.2l0.1-0.1
		c0.1-0.2,0.2-0.4,0.2-0.6c-0.5-4.1,2.5-7.8,6.5-8.2c0.6-0.1,1.1-0.1,1.7,0c0.4,0.1,0.9-0.1,1-0.5s-0.1-0.9-0.5-1
		c-0.1,0-0.2,0-0.3,0C101.5,143.2,98.7,144.1,96.8,146.1z"/>
	<path class="st1" d="M100,148.4c-1.2,1-2,2.4-2.2,4c-0.1,0.5-0.1,0.9,0,1.4c0.1,0.4,0.5,0.7,1,0.6c0.4-0.1,0.6-0.4,0.6-0.8
		c-0.3-2.4,1.4-4.6,3.8-4.8c0.3,0,0.7,0,1,0c0.2,0,0.5-0.1,0.7-0.2c0.1-0.1,0.2-0.3,0.2-0.4v-0.1c0-0.4-0.3-0.8-0.7-0.9
		C102.9,147,101.3,147.4,100,148.4z"/>
	<path class="st1" d="M104.9,151.1c-1.9,0.2-3.3,1.9-3.1,3.8c0.2,1.5,1.2,2.7,2.6,3v8.7c0,0.4,0.3,0.8,0.7,0.9
		c0.4,0,0.8-0.3,0.9-0.7c0-0.1,0-0.1,0-0.2v-8.7c1.9-0.5,3-2.4,2.5-4.2C108.1,152.1,106.6,151,104.9,151.1z M107.1,154.6
		c0,1-0.8,1.9-1.9,1.9s-1.9-0.8-1.9-1.9s0.8-1.9,1.9-1.9l0,0C106.2,152.7,107.1,153.6,107.1,154.6L107.1,154.6z"/>
	<rect x="38.8" y="81.6" class="st5" width="27.9" height="13.4"/>
	<rect x="13.3" y="87.1" class="st5" width="25.5" height="7.9"/>
	<polygon class="st1" points="105.1,119 125.2,94 10.2,94 22.4,119 	"/>
	<rect x="70.7" y="2" class="st3" width="2.4" height="92.1"/>
	<polygon class="st4" points="74.4,5.4 74.4,74 120.6,74 	"/>
	<polygon class="st4" points="69.5,7.2 69.5,74 28.2,74 	"/>
	<path class="st1" d="M24.5,78.9c1.4-3.8-0.6-8-4.4-9.4c-0.5-0.2-1.1-0.3-1.6-0.4c-0.1,0-0.3,0-0.4,0.1c-0.2,0.2-0.3,0.5-0.1,0.7
		c0.1,0.1,0.2,0.2,0.3,0.2c3.5,0.5,6,3.7,5.5,7.2c-0.1,0.5-0.2,0.9-0.3,1.4v0.1l0,0c0,0.1,0,0.1,0,0.2l0,0c0.1,0.2,0.4,0.3,0.7,0.2
		C24.2,79.1,24.3,79,24.5,78.9L24.5,78.9z"/>
	<path class="st1" d="M21.7,73.8L21.7,73.8c-0.9-1.4-2.3-2.4-4-2.6c-0.3,0-0.5,0.2-0.5,0.4c0,0.1,0,0.2,0.1,0.3l0,0
		c0.1,0.1,0.2,0.2,0.3,0.2c2.5,0.3,4.2,2.5,3.9,5c0,0.3-0.1,0.7-0.3,1c-0.1,0.3,0,0.5,0.3,0.6c0.2,0.1,0.5,0,0.6-0.3l0,0
		C22.7,77,22.6,75.3,21.7,73.8z"/>
	<path class="st1" d="M19.9,75.4c-0.4-0.9-1.1-1.5-2-1.9c-0.3-0.1-0.5-0.2-0.8-0.2s-0.5,0.1-0.5,0.4l0,0c0,0.3,0.2,0.5,0.4,0.6
		c1.5,0.2,2.5,1.5,2.3,3l0,0c0,0.2-0.1,0.4-0.1,0.6c-0.1,0.1-0.1,0.3,0,0.4c0,0.1,0.1,0.1,0.2,0.2h0.1c0.3,0.1,0.5,0,0.6-0.3l0,0
		C20.3,77.3,20.3,76.3,19.9,75.4z"/>
	<path class="st1" d="M15.4,75.6c-1.2,0.1-2,1.2-1.8,2.4c0.1,0.9,0.8,1.6,1.6,1.8v5.3c0,0.3,0.2,0.5,0.5,0.5s0.5-0.2,0.5-0.5v-5.3
		c1.1-0.3,1.8-1.4,1.6-2.5C17.5,76.2,16.5,75.5,15.4,75.6L15.4,75.6z M16.8,77.7c0,0.6-0.5,1.1-1.1,1.1c-0.6,0-1.1-0.5-1.1-1.1
		s0.5-1.1,1.1-1.1C16.3,76.6,16.8,77.1,16.8,77.7z"/>
	<circle class="st3" cx="72" cy="2.1" r="2.1"/>
</g>
<g id="_11">
	<path class="st1" d="M19.4,116.1c-0.3,0-0.6-0.1-0.8-0.4c-0.3-0.4-0.3-1.1,0.2-1.4c0.6-0.4,0.9-0.6,0.9-0.6
		c0.5-0.3,1.1-0.1,1.4,0.4c0.3,0.4,0.1,1-0.3,1.3c0,0-0.3,0.2-0.7,0.5C19.8,116,19.6,116.1,19.4,116.1z"/>
	<path class="st1" d="M62.8,196.7h-0.9c-0.6,0-1-0.4-1-1s0.4-1,1-1h2c0.6,0,1,0.4,1,1s-0.4,1-1,1H62.8z M57,196.4L57,196.4l-2.1-0.2
		c-0.5-0.1-0.9-0.6-0.9-1.1c0.1-0.5,0.6-0.9,1.1-0.9l0,0l1.9,0.2c0.6,0,1,0.5,1,1S57.6,196.5,57,196.4L57,196.4z M68.8,196.3
		c-0.6,0-1-0.4-1.1-0.9c0-0.6,0.4-1,1-1.1l1.9-0.2c0.6-0.1,1.1,0.3,1.1,0.9s-0.3,1.1-0.9,1.1L68.8,196.3L68.8,196.3z M50.2,195.5H50
		l-2-0.4c-0.5-0.1-0.9-0.6-0.8-1.2l0,0c0.1-0.5,0.6-0.9,1.2-0.8c0.6,0.1,1.3,0.3,1.9,0.4c0.6,0,1,0.5,0.9,1.1
		C51.2,195.2,50.7,195.6,50.2,195.5L50.2,195.5z M75.7,195.4c-0.6,0-1-0.4-1.1-0.9c0-0.6,0.4-1,0.9-1.1c0.7-0.1,1.3-0.2,1.9-0.4
		c0.6-0.1,1.1,0.3,1.2,0.8c0.1,0.6-0.3,1.1-0.8,1.2C77.2,195.1,76.5,195.2,75.7,195.4L75.7,195.4z M82.5,194
		c-0.6,0.1-1.1-0.3-1.1-0.9s0.3-1.1,0.9-1.1l1.9-0.5c0.5-0.1,1.1,0.2,1.2,0.8c0.1,0.5-0.2,1-0.6,1.1c-0.6,0.2-1.3,0.4-1.9,0.5
		C82.6,194,82.5,194,82.5,194L82.5,194z M43.5,194h-0.3c-0.7-0.2-1.3-0.3-1.9-0.5c-0.5-0.2-0.8-0.7-0.7-1.2c0.2-0.5,0.7-0.8,1.2-0.7
		l1.9,0.5c0.6,0.1,0.9,0.6,0.9,1.1C44.5,193.7,44,194.1,43.5,194L43.5,194z M89.1,192c-0.6,0-1-0.4-1-1c0-0.4,0.3-0.8,0.7-0.9
		c0.7-0.2,1.3-0.5,1.8-0.7s1.1,0,1.3,0.5c0.2,0.5,0,1.1-0.5,1.3c-0.6,0.2-1.2,0.5-1.9,0.7C89.3,192,89.2,192,89.1,192L89.1,192z
		 M36.9,191.9c-0.1,0-0.2,0-0.3-0.1l-1.9-0.7c-0.5-0.2-0.8-0.8-0.6-1.3s0.8-0.8,1.3-0.6l0,0c0.6,0.2,1.2,0.5,1.8,0.7
		c0.5,0.2,0.8,0.8,0.6,1.3C37.7,191.7,37.3,191.9,36.9,191.9L36.9,191.9z M30.5,189.3c-0.1,0-0.3,0-0.4-0.1
		c-0.6-0.3-1.2-0.6-1.8-0.9c-0.5-0.2-0.7-0.8-0.5-1.3s0.8-0.7,1.3-0.4c0.6,0.3,1.2,0.6,1.8,0.8c0.5,0.2,0.7,0.8,0.5,1.3
		C31.2,189.1,30.9,189.3,30.5,189.3L30.5,189.3z M24.4,186.1c-0.2,0-0.4,0-0.5-0.1c-0.6-0.3-1.1-0.7-1.7-1c-0.5-0.3-0.7-0.9-0.4-1.4
		s0.9-0.7,1.4-0.4s1.1,0.7,1.7,1c0.5,0.3,0.6,0.9,0.3,1.4C25,185.9,24.7,186.1,24.4,186.1L24.4,186.1z M18.6,182.2
		c-0.2,0-0.4-0.1-0.6-0.2c-0.5-0.4-1.1-0.8-1.6-1.3c-0.4-0.4-0.5-1-0.1-1.4c0.4-0.4,1-0.5,1.4-0.1c0.5,0.4,1,0.8,1.5,1.2
		c0.4,0.3,0.5,1,0.2,1.4C19.2,182.1,18.9,182.2,18.6,182.2L18.6,182.2z M13.5,177.7c-0.3,0-0.5-0.1-0.7-0.3c-0.5-0.5-0.9-1-1.4-1.5
		c-0.4-0.3-0.5-1-0.1-1.4c0.3-0.4,1-0.5,1.4-0.1c0.1,0,0.1,0.1,0.2,0.2c0.4,0.5,0.9,0.9,1.3,1.4c0.4,0.4,0.4,1,0,1.4
		C13.9,177.5,13.7,177.6,13.5,177.7L13.5,177.7z M9.1,172.3c-0.3,0-0.6-0.2-0.8-0.4c-0.4-0.6-0.8-1.1-1.1-1.7
		c-0.3-0.5-0.1-1.1,0.3-1.4c0.5-0.3,1.1-0.1,1.4,0.3c0.3,0.6,0.7,1.1,1,1.6s0.2,1.1-0.3,1.4C9.4,172.3,9.2,172.3,9.1,172.3
		L9.1,172.3z M5.8,166.3c-0.4,0-0.8-0.2-0.9-0.6c-0.3-0.6-0.5-1.3-0.7-1.9c-0.2-0.5,0.1-1.1,0.6-1.3s1.1,0.1,1.3,0.6
		c0.2,0.6,0.4,1.2,0.7,1.8c0.2,0.5,0,1.1-0.5,1.3C6,166.3,5.9,166.3,5.8,166.3L5.8,166.3z M3.8,159.7c-0.5,0-0.9-0.3-1-0.8
		c-0.1-0.7-0.2-1.3-0.3-2c-0.1-0.5,0.3-1,0.9-1.1c0.5-0.1,1,0.3,1.1,0.9l0,0c0.1,0.6,0.2,1.3,0.3,1.9c0.1,0.5-0.3,1.1-0.8,1.2
		L3.8,159.7z M3.2,152.8L3.2,152.8c-0.6,0-1-0.4-1-1c0-0.7,0-1.3,0.1-2c0-0.6,0.4-1,1-1s1,0.4,1,1c0,0,0,0,0,0.1
		c0,0.6,0,1.3-0.1,1.9C4.2,152.3,3.8,152.8,3.2,152.8L3.2,152.8z M3.7,145.9H3.6c-0.5-0.1-0.9-0.6-0.9-1.1l0,0
		c0.1-0.7,0.2-1.3,0.3-2c0.1-0.6,0.6-0.9,1.2-0.8c0.6,0.1,0.9,0.6,0.8,1.2c-0.1,0.6-0.2,1.3-0.3,1.9C4.6,145.5,4.2,145.9,3.7,145.9z
		 M5,139.1c-0.1,0-0.2,0-0.3,0c-0.5-0.1-0.9-0.7-0.7-1.2l0,0c0.2-0.7,0.4-1.3,0.5-1.9c0.2-0.5,0.7-0.8,1.3-0.7
		c0.5,0.2,0.8,0.7,0.7,1.3c-0.2,0.6-0.4,1.2-0.5,1.9C5.8,138.8,5.4,139.1,5,139.1z M7.2,132.6c-0.1,0-0.3,0-0.4-0.1
		c-0.5-0.2-0.7-0.8-0.5-1.3c0.3-0.6,0.5-1.2,0.8-1.8c0.2-0.5,0.8-0.7,1.3-0.5s0.7,0.8,0.5,1.3l0,0c-0.3,0.6-0.5,1.1-0.8,1.8
		C8,132.3,7.6,132.6,7.2,132.6z M10.3,126.4c-0.2,0-0.4-0.1-0.5-0.1c-0.5-0.3-0.6-0.9-0.3-1.4l0,0c0.4-0.6,0.7-1.1,1.1-1.7
		c0.3-0.5,0.9-0.6,1.4-0.3s0.6,0.9,0.3,1.4l0,0c-0.4,0.5-0.7,1.1-1,1.6C11,126.3,10.7,126.4,10.3,126.4z M14.4,120.9
		c-0.6,0-1-0.4-1-1c0-0.2,0.1-0.5,0.2-0.7c0.5-0.5,0.9-1,1.4-1.5c0.4-0.4,1-0.4,1.4,0c0.4,0.4,0.4,1,0,1.4c-0.4,0.4-0.9,0.9-1.3,1.4
		C15,120.7,14.7,120.9,14.4,120.9z"/>
	<path class="st1" d="M95.4,189c-0.6,0-1-0.4-1-1c0-0.4,0.2-0.7,0.5-0.9c0.3-0.1,0.5-0.3,0.8-0.5c0.4-0.3,1.1-0.2,1.4,0.2
		s0.2,1.1-0.2,1.4l0,0c0,0-0.3,0.2-0.9,0.6C95.7,189,95.5,189,95.4,189z"/>
	<path class="st1" d="M40.5,144.9c0,0.4,0.3,0.6,0.6,0.7c3.9,0.4,6-3.8,7-6.1c2.7,3.6,6.8,5.8,11.2,6.1c0.3,0,0.5,0.1,0.8,0.1
		c2,0,7.4-0.7,9.7-7.5c0.1-0.1,0.1-0.3,0-0.4c-1.4-4.5-5.6-7.6-10.4-7.5h-0.1c-4.5,0.3-8.6,2.6-11.3,6.1c-0.9-2.3-3.1-6.6-7-6.1
		c-0.4,0.1-0.6,0.3-0.6,0.7c0,0.2-0.1,4.7,2,7C40.5,140.1,40.5,144.7,40.5,144.9z M59.4,131.5L59.4,131.5c4.1-0.2,7.8,2.4,9,6.3
		c-2.5,7.2-8.6,6.4-8.9,6.3h-0.1c-0.1,0-7-0.4-10.7-6.3C52.4,131.9,59.3,131.5,59.4,131.5z M44,138.4c0.2-0.1,0.3-0.3,0.3-0.6
		c0-0.2-0.1-0.4-0.3-0.6c-1.5-1.1-2-4.1-2.1-5.8c3.2,0.3,4.9,5.3,5.2,6.3c-0.3,1-2,6.1-5.2,6.3C42.1,142.5,42.5,139.5,44,138.4z"/>
	<ellipse class="st1" cx="64.6" cy="136.3" rx="0.7" ry="0.8"/>
	<path class="st1" d="M27.8,167.2c2.7,3.6,6.8,5.8,11.2,6.1c0.3,0,0.5,0.1,0.8,0.1c2,0,7.4-0.7,9.7-7.5c0.1-0.1,0.1-0.3,0-0.4
		c-1.4-4.5-5.6-7.6-10.4-7.5H39c-4.5,0.3-8.6,2.6-11.3,6.1c-0.9-2.3-3.1-6.5-7-6.1c-0.3,0-0.6,0.3-0.6,0.7c0.1,0.1,0,4.7,2.1,7
		c-2.1,2.3-2,6.8-2,7c0,0.4,0.3,0.6,0.6,0.7C24.7,173.8,26.9,169.5,27.8,167.2z M39.1,159.3L39.1,159.3c4.1-0.2,7.8,2.4,9,6.3
		c-2.5,7.2-8.6,6.4-8.9,6.3h-0.1c-0.1,0-7-0.4-10.7-6.3C32,159.6,39,159.3,39.1,159.3L39.1,159.3z M23.7,166.2
		c0.3-0.2,0.4-0.7,0.1-1l-0.1-0.1c-1.5-1.1-2-4.1-2.1-5.8c3.2,0.3,4.9,5.3,5.2,6.3c-0.3,1-2,6-5.2,6.3
		C21.7,170.3,22.2,167.3,23.7,166.2z"/>
	<ellipse class="st1" cx="44.2" cy="164.1" rx="0.7" ry="0.8"/>
	<path class="st1" d="M32.3,155c0,0.4,0.3,0.6,0.6,0.7c1.9,0.2,3-1.5,3.6-2.7c1.4,1.6,3.4,2.6,5.5,2.7h0.5c2.4-0.1,4.5-1.7,5.1-4
		c0.1-0.1,0.1-0.3,0-0.4c-0.7-2.4-3-4.1-5.5-4l0,0c-2.1,0.1-4.1,1.1-5.5,2.7c-0.6-1.3-1.7-2.9-3.6-2.7c-0.4,0.1-0.6,0.3-0.6,0.7
		c0,1.2,0.3,2.4,0.9,3.5C32.6,152.6,32.3,153.8,32.3,155z M42.1,148.7L42.1,148.7c1.8,0,3.5,1.1,4.1,2.8c-0.5,1.8-2.2,3-4,2.9h-0.1
		c-2-0.2-3.8-1.2-4.9-2.8C38.3,149.9,40.1,148.8,42.1,148.7z M34.6,151c-0.5-0.6-0.8-1.4-0.8-2.2c1,0.5,1.7,2.2,1.9,2.7
		c-0.2,0.6-0.8,2.2-1.9,2.7c0-0.8,0.3-1.6,0.8-2.2c0.2-0.1,0.3-0.3,0.3-0.6C34.9,151.4,34.8,151.1,34.6,151z"/>
	<ellipse class="st1" cx="44.7" cy="150.7" rx="0.3" ry="0.4"/>
	<path class="st1" d="M41.8,182.5c0,0.4,0.3,0.6,0.6,0.7c1.9,0.2,3-1.5,3.6-2.7c1.4,1.6,3.4,2.6,5.5,2.7H52c2.4-0.1,4.5-1.7,5.1-4
		c0.1-0.1,0.1-0.3,0-0.4c-0.7-2.4-3-4-5.5-4l0,0c-2.1,0.1-4.1,1.1-5.5,2.7c-0.6-1.3-1.7-2.9-3.6-2.7c-0.3,0-0.6,0.3-0.6,0.7
		c0,1.2,0.3,2.5,0.9,3.6C42.1,180.1,41.8,181.3,41.8,182.5z M51.6,176.1L51.6,176.1c1.8-0.1,3.5,1.1,4.1,2.8c-0.5,1.8-2.2,3-4,2.9
		h-0.1c-2-0.1-3.8-1.1-4.9-2.8C47.8,177.3,49.6,176.3,51.6,176.1L51.6,176.1z M44.2,178.3c-0.5-0.6-0.8-1.4-0.8-2.1
		c1,0.5,1.7,2.1,1.9,2.7c-0.2,0.6-0.8,2.2-1.9,2.7c0-0.8,0.3-1.5,0.8-2.1c0.2-0.1,0.3-0.3,0.3-0.6C44.5,178.7,44.4,178.5,44.2,178.3
		z"/>
	<ellipse class="st1" cx="54.2" cy="178.1" rx="0.3" ry="0.4"/>
	<path class="st1" d="M62.8,151.1c-0.7-1.6-2.1-3.9-4.5-3.7c-0.4,0.1-0.6,0.3-0.6,0.7c0,0.3,0,3,1.3,4.5c-1.3,1.5-1.3,4.2-1.3,4.5
		c0,0.4,0.3,0.6,0.6,0.7c2.4,0.3,3.9-2.1,4.5-3.7c1.8,2.1,4.3,3.4,7.1,3.6h0.5c1.4,0,4.9-0.5,6.5-5c0.1-0.1,0.1-0.3,0-0.4
		c-0.9-3-3.7-5.1-6.9-5l0,0C67.2,147.6,64.6,148.9,62.8,151.1z M59,156.4c0-1.2,0.4-2.3,1.2-3.2c0.2-0.1,0.3-0.3,0.3-0.6
		c0-0.2-0.1-0.4-0.3-0.6c-0.8-0.6-1.1-2.2-1.2-3.2c1.7,0.4,2.6,3.1,2.9,3.8C61.7,153.3,60.7,155.9,59,156.4z M70,148.8L70,148.8
		c2.5-0.1,4.7,1.5,5.5,3.8c-1.5,4.3-5.2,3.8-5.4,3.8H70c-2.6-0.2-5.1-1.6-6.5-3.8C64.9,150.4,67.3,149,70,148.8z"/>
	<circle class="st1" cx="73.3" cy="151.6" r="0.5"/>
	<path class="st1" d="M51,168.2c0,0.4,0.3,0.6,0.6,0.7c2.4,0.3,3.9-2.1,4.5-3.7c1.7,2.2,4.3,3.5,7.1,3.7h0.5c1.4,0,4.9-0.5,6.5-5
		c0.1-0.1,0.1-0.3,0-0.4c-0.9-3-3.7-5.1-6.9-5l0,0c-2.8,0.2-5.4,1.5-7.2,3.7c-0.7-1.6-2.1-4-4.5-3.7c-0.4,0.1-0.6,0.3-0.6,0.7
		s0,3,1.3,4.5C51,165.2,51,167.8,51,168.2z M63.4,159.8L63.4,159.8c2.5-0.1,4.7,1.5,5.5,3.8c-1.5,4.3-5.2,3.8-5.4,3.8h-0.1
		c-2.6-0.2-5.1-1.6-6.5-3.8C58.3,161.5,60.7,160.1,63.4,159.8z M55.3,163.7c-0.2,0.7-1.2,3.3-2.9,3.8c0-1.2,0.4-2.3,1.2-3.2
		c0.2-0.1,0.3-0.3,0.3-0.6c0-0.2-0.1-0.4-0.3-0.6c-0.8-0.6-1.1-2.2-1.2-3.2C54.1,160.3,55.1,163,55.3,163.7z"/>
	<circle class="st1" cx="66.7" cy="162.7" r="0.5"/>
</g>
<g id="_12">
	<circle class="st2" cx="165.7" cy="178.7" r="10"/>
	<path class="st1" d="M173.5,171.1c-0.5-0.5-1.1-1-1.8-1.4c-0.5-0.6-1-1.2-1.4-1.8c-1-1.6-2.1-3.3-4.6-3.3s-3.6,1.7-4.6,3.3
		c-0.4,0.7-0.9,1.3-1.4,1.8c-0.6,0.4-1.2,0.9-1.8,1.4c-4.2,4.1-4.3,10.9-0.2,15.1c0.1,0.1,0.1,0.1,0.2,0.2c4.3,4.2,11.2,4.2,15.6,0
		c4.2-4.1,4.3-10.9,0.2-15.1C173.6,171.2,173.5,171.1,173.5,171.1z M168.3,173.9c-1.6-0.8-3.5-0.8-5.1,0l-2.4-3.6
		c3.1-1.8,6.9-1.8,10,0L168.3,173.9z M170,178.7c0,1.1-0.5,2.2-1.3,3c-1.7,1.7-4.4,1.7-6.1,0c-1.7-1.6-1.7-4.2-0.1-5.9l0.1-0.1
		c1.7-1.7,4.4-1.7,6.1,0C169.6,176.5,170,177.6,170,178.7z M162,168.4c1-1.5,1.8-2.8,3.6-2.8s2.6,1.2,3.6,2.8l0.1,0.1
		c-2.4-0.8-5-0.8-7.4,0L162,168.4z M157.2,183.6c-1.8-3-1.8-6.8,0-9.8l3.6,2.4c-0.8,1.6-0.8,3.4,0,5L157.2,183.6z M165.7,188.4
		c-1.8,0-3.5-0.5-5-1.3l2.5-3.5c1.6,0.8,3.5,0.8,5.1,0l2.4,3.6C169.2,187.9,167.5,188.4,165.7,188.4L165.7,188.4z M170.5,181.2
		c0.8-1.6,0.8-3.4,0-5l3.7-2.4c1.8,3,1.8,6.8,0,9.8L170.5,181.2z"/>
</g>
<g id="_13">
	<path class="st1" d="M239.9,168.2c-0.2,0-0.5-0.1-0.6-0.4c-0.1-0.3,0-0.7,0.3-0.8c2.1-1,3.3-2.1,3.3-3.2c0-1.8-9.5-5-12.8-5
		c-3.1,0-12.8,3.3-12.8,5c0,1.1,1.2,2.3,3.3,3.2c0.3,0.2,0.4,0.5,0.3,0.8c-0.1,0.3-0.5,0.4-0.8,0.3l0,0c-2.6-1.2-4-2.7-4-4.4
		c0-3.3,11.4-6.3,14-6.3s14,3,14,6.3c0,1.6-1.4,3.2-4,4.4C240.1,168.2,240,168.2,239.9,168.2z"/>
	<path class="st1" d="M231.5,171.3h-1.8c-5.9,0-9.2-0.3-9.8-1.6c0-0.1,0-0.2,0-0.2v-2c0-0.3,0.2-0.6,0.5-0.6
		c3.3-0.4,6.5-0.6,9.8-0.6s6.6,0.2,9.8,0.6c0.3,0,0.5,0.3,0.5,0.6v1.9c0,0.1,0,0.2-0.1,0.3C239.9,171,237,171.3,231.5,171.3z
		 M230.2,170h0.7c1.9,0,7.6,0,8.4-0.8v-1.1c-3-0.4-6.1-0.5-9.1-0.6c-3.1,0-6.1,0.2-9.1,0.6v1.1c0.8,0.8,6.7,0.8,8.6,0.8H230.2z
		 M239.9,169.4L239.9,169.4z"/>
	<path class="st1" d="M230.2,177.5c-5.2,0-8.4-0.9-9.7-2.8c-1.1-1.6-0.5-3.4-0.2-4.4c0.1-0.2,0.1-0.4,0.1-0.5c0-0.3,0.3-0.6,0.7-0.5
		l0,0c0.3,0.1,0.6,0.4,0.5,0.7c-0.1,0.2-0.1,0.4-0.2,0.7c-0.5,1-0.5,2.2,0,3.2c0.7,1,2.8,2.2,8.7,2.2s8-1.2,8.7-2.2s0.3-2.4,0-3.2
		c-0.1-0.2-0.1-0.5-0.2-0.7c-0.1-0.3,0.2-0.7,0.5-0.7s0.6,0.2,0.7,0.5c0,0.2,0.1,0.3,0.1,0.5c0.3,1,0.9,2.8-0.2,4.4
		C238.6,176.6,235.4,177.5,230.2,177.5z"/>
	<path class="st1" d="M230.2,165c-0.3,0-0.6-0.3-0.6-0.6l0,0v-3.8c0-0.3,0.3-0.6,0.6-0.6s0.6,0.3,0.6,0.6v3.8
		C230.8,164.7,230.5,165,230.2,165L230.2,165z"/>
	<path class="st1" d="M230.2,165c-1.7,0-3-0.8-3-1.9c0-0.3,0.2-0.6,0.5-0.7s0.6,0.2,0.7,0.5c0,0.1,0,0.1,0,0.2
		c0,0.1,0.6,0.6,1.8,0.6s1.8-0.5,1.8-0.6c0-0.3,0.2-0.6,0.5-0.7s0.6,0.2,0.7,0.5c0,0.1,0,0.1,0,0.2C233.2,164.2,231.9,165,230.2,165
		z"/>
	<path class="st1" d="M230.8,161.9h-1.2c-0.3,0-0.6-0.3-0.6-0.6l0,0c0-0.3,0.3-0.6,0.6-0.6l0,0h1.2c0.3,0,0.6,0.3,0.6,0.6l0,0
		C231.4,161.6,231.2,161.9,230.8,161.9L230.8,161.9z"/>
</g>
<g id="_14">
	<path class="st1" d="M58.7,226.3c-0.2-0.2-0.5-0.4-0.9-0.4c-3.4,0-6-0.8-7.7-2.4c-1.4-1.4-2.2-3.3-2.2-5.3c0-3.2,2.4-5.8,5.9-6.3
		c0.3-0.1,0.6-0.2,0.8-0.5c0.2-0.3,0.3-0.6,0.2-0.9c0-0.3-0.2-0.6-0.4-0.7c-3.6-2.7-8.4-2.9-10.3-2.9h-0.3c-0.7,0-1.1,0.6-1.1,1.3
		s0.6,1.1,1.3,1.1c2.3,0,4.6,0.5,6.8,1.3c-3.1,1.3-5.1,4.3-5.2,7.7c-0.1,2.6,1,5.2,2.9,7c2.1,2,5.4,3,9.3,3l0,0
		c0.6,0,1.2-0.5,1.2-1.2C59,226.8,58.9,226.5,58.7,226.3z"/>
	<path class="st1" d="M39,208.3c-0.2,0-0.4,0.1-0.6,0.2c-2.7,1.8-4.3,4.7-5.9,7.8c-3.8-1-6-3.5-6-6.9c0-2.9,2.5-6.2,7.3-7
		c0.6-0.1,1.1-0.7,0.9-1.4c-0.1-0.4-0.4-0.7-0.7-0.9c-3.2-1.3-6.6-2-10.1-2.1c-2.9-0.1-5.7,0.8-8,2.6c-1.9,1.6-3.4,3.7-4.4,6
		l-0.2,0.3c-0.4,0.9-0.8,1.7-1.1,2.5c-0.7,1.9-1.6,3.7-2.7,5.4c-1.5,2.1-3.4,3-6.3,3l0,0c-0.7,0-1.2,0.5-1.2,1.2
		c0,0.3,0.1,0.6,0.3,0.8s0.5,0.4,0.9,0.4c3.2,0.2,6.3-1.4,8.2-4c1.3-1.9,2.3-3.9,3.1-6c0.3-0.8,0.6-1.5,1-2.3l0.1-0.2l0,0
		c0.9-2,2.2-3.8,3.9-5.3c1.9-1.4,4.2-2.2,6.5-2.1c2,0.1,4,0.4,5.9,1c-3.5,1.7-5.8,4.8-5.8,8.1s1.9,7.4,7.3,9
		c-0.2,0.5-0.5,0.9-0.7,1.4c-0.9,1.8-2.1,3.5-3.6,4.9c-1.4,1.3-3.3,2-5.3,1.9l0,0c-0.6,0-1.2,0.5-1.2,1.2c0,0.3,0.1,0.6,0.3,0.8
		s0.5,0.4,0.9,0.4c2.5,0,4.9-0.9,6.8-2.5c1.7-1.6,3.1-3.5,4.1-5.6c0.4-0.8,0.9-1.6,1.3-2.5c1.7-3.3,3.2-6.4,5.6-8
		c0.3-0.2,0.5-0.4,0.5-0.7c0.1-0.6-0.3-1.3-0.9-1.4C39.2,208.3,39.1,208.3,39,208.3L39,208.3z"/>
</g>
</svg>
