<svg xmlns="http://www.w3.org/2000/svg" width="9" height="24" viewBox="0 0 9 24"><defs><style>.a{fill:#fff;}</style></defs><path class="a" d="M-3.562-1.114A.937.937,0,0,0-4.5-.177V2.063A.937.937,0,0,0-3.562,3H3.563A.937.937,0,0,0,4.5,2.063V-.177a.937.937,0,0,0-.937-.937H2.625v-9.948A.937.937,0,0,0,1.688-12h-5.25a.937.937,0,0,0-.937.938v2.239a.937.937,0,0,0,.938.938h.938v6.771ZM0-21a3.375,3.375,0,0,0-3.375,3.375A3.375,3.375,0,0,0,0-14.25a3.375,3.375,0,0,0,3.375-3.375A3.375,3.375,0,0,0,0-21Z" transform="translate(4.5 21)"/></svg>