<svg xmlns="http://www.w3.org/2000/svg" width="22.257" height="23.25" viewBox="0 0 22.257 23.25"><defs><style>.a{fill:#fff;}</style></defs><path class="a" d="M10.847-6.2l-2-1.153a9.029,9.029,0,0,0,0-3.291l2-1.153a.567.567,0,0,0,.258-.656,11.675,11.675,0,0,0-2.564-4.434A.564.564,0,0,0,7.847-17l-2,1.153A8.846,8.846,0,0,0,3-17.489v-2.3a.562.562,0,0,0-.441-.548,11.785,11.785,0,0,0-5.119,0A.562.562,0,0,0-3-19.791v2.306a9.126,9.126,0,0,0-2.85,1.645l-1.992-1.153a.557.557,0,0,0-.694.108A11.6,11.6,0,0,0-11.1-12.45a.561.561,0,0,0,.258.656l2,1.153a9.03,9.03,0,0,0,0,3.291l-2,1.153a.566.566,0,0,0-.258.656A11.674,11.674,0,0,0-8.536-1.106.564.564,0,0,0-7.842-1l2-1.153A8.846,8.846,0,0,0-3-.506V1.8a.562.562,0,0,0,.441.548,11.783,11.783,0,0,0,5.119,0A.562.562,0,0,0,3,1.8V-.506a9.125,9.125,0,0,0,2.85-1.645L7.852-1a.557.557,0,0,0,.694-.108,11.6,11.6,0,0,0,2.564-4.434A.579.579,0,0,0,10.847-6.2ZM0-5.25A3.755,3.755,0,0,1-3.75-9,3.755,3.755,0,0,1,0-12.75,3.755,3.755,0,0,1,3.75-9,3.755,3.755,0,0,1,0-5.25Z" transform="translate(11.126 20.62)"/></svg>